<svg class="button-tinkoff button-tinkoff-black" width="127" height="32" viewBox="0 0 127 32" fill="none"
     xmlns="http://www.w3.org/2000/svg">
    <rect class="button-tinkoff-background" width="127" height="32" rx="8"/>
    <path d="M37.89 13.7V12.88H32.1V13.7H34.53V20H35.46V13.7H37.89ZM39.6463 13.87V12.88H38.7663V13.87H39.6463ZM39.6463 20V14.92H38.7663V20H39.6463ZM43.6177 14.81C42.9377 14.81 42.3877 15.12 42.0777 15.59H42.0577V14.92H41.2077V20H42.0877V17.09C42.0877 16.07 42.6877 15.53 43.4077 15.53C44.1377 15.53 44.5777 15.91 44.5777 16.97V20H45.4577V16.9C45.4577 15.51 44.7777 14.81 43.6177 14.81ZM51.2795 20L48.7295 17.22L51.0095 14.92H49.9195L47.8695 17.03H47.8495V12.88H46.9695V20H47.8495V17.46H47.8695L50.1195 20H51.2795ZM53.7653 14.78C52.2753 14.78 51.3553 15.8 51.3553 17.46C51.3553 19.12 52.2753 20.14 53.7653 20.14C55.2553 20.14 56.1853 19.12 56.1853 17.46C56.1853 15.8 55.2553 14.78 53.7653 14.78ZM53.7653 15.5C54.6953 15.5 55.2653 16.25 55.2653 17.46C55.2653 18.67 54.6953 19.42 53.7653 19.42C52.8453 19.42 52.2753 18.67 52.2753 17.46C52.2753 16.25 52.8453 15.5 53.7653 15.5ZM61.9596 13.53C62.0596 13.53 62.1796 13.54 62.2496 13.56V12.88C62.1196 12.85 61.9196 12.83 61.7396 12.83C60.8396 12.83 60.3496 13.31 60.3496 14.29V14.92H58.4896V14.39C58.4896 13.76 58.7396 13.53 59.2296 13.53C59.3396 13.53 59.4596 13.54 59.5196 13.56V12.88C59.3996 12.85 59.1896 12.83 59.0096 12.83C58.1096 12.83 57.6196 13.31 57.6196 14.29V14.92H56.7296V15.62H57.6196V20H58.4896V15.62H60.3496V20H61.2196V15.62H62.2296V14.92H61.2196V14.39C61.2196 13.76 61.4696 13.53 61.9596 13.53Z"
          fill="white"/>
    <rect x="67.3333" y="8.33333" width="28.3333" height="15.3333" rx="7.66667" fill="black"/>
    <g clip-path="url(#clip0_1_1462)">
        <path d="M76.2906 11.3333C75.6862 11.3333 74.9353 11.7069 74.6554 11.9697L74.7654 12.2197C74.7654 12.2197 73.9133 12.231 73.4741 12.5138C73.0349 12.7965 72.8346 12.9887 72.6183 13.4454C72.4017 13.4557 71.5896 13.8004 71.1192 14.147C71.1192 14.147 70.7239 15.6435 71.4726 16.2893L71 16.9382C71.1192 17.3467 71.634 17.7619 72.1456 17.8114C72.3757 18.0904 71.9293 18.6445 71.9293 18.6445C72.1183 19.2444 73.3907 19.9039 74.1506 19.9039L74.046 20.2571C74.046 20.2571 74.8925 20.8734 76.2584 20.8158C77.4131 20.8533 78.3522 20.5776 78.5906 20.2571L78.4699 19.9039C79.5245 19.7467 80.3211 19.4028 80.7644 18.6729C80.7644 18.6729 80.4343 17.9791 80.5495 17.805C81.0611 17.7555 81.5395 17.2516 81.6667 17.0316L81.2026 16.3011C81.5727 15.8855 81.7799 14.7887 81.5078 14.147C81.0375 13.8004 80.2333 13.5186 80.0167 13.5083C79.9308 13.0013 79.3791 12.6049 79.3791 12.6049C78.8566 12.1505 77.9063 12.2197 77.9063 12.2197L77.9836 11.9697C77.7413 11.6996 76.9764 11.3333 76.2906 11.3333Z"
              fill="white"/>
        <path d="M74.8813 12.7525C74.2766 12.5985 73.8207 12.8093 73.4263 13.0993C73.031 13.3899 72.875 13.7667 72.9097 13.9015C72.5865 13.7692 71.8768 14.1796 71.539 14.3765C71.539 14.3765 71.2776 15.6551 71.9459 16.1499C71.9111 16.4973 71.6661 16.9142 71.539 16.9923C71.7593 17.3396 72.2261 17.4347 72.4238 17.3465C72.7542 17.804 72.5946 18.4239 72.411 18.6216C72.9245 19.0853 74.1499 19.2797 74.5088 19.3088C74.5088 19.3088 74.1928 18.5683 74.0518 17.9582C73.6619 16.2719 73.8718 14.1678 73.8718 14.1678C73.8718 14.1678 72.9611 15.2279 73.4687 17.7836C73.5544 18.2151 73.6756 18.6713 73.6756 18.6713C73.5911 18.6294 73.385 18.6548 73.006 18.4631C73.1684 18.2882 73.0985 17.2512 72.6202 16.7424C72.6202 16.7424 72.3927 16.8474 72.2256 16.7779C72.338 16.7088 72.4783 16.2682 72.4783 15.9309C71.9375 15.6077 71.9949 15.0233 72.0216 14.716C72.287 14.5437 72.763 14.2507 73.3619 14.5065C73.3461 14.3614 73.3871 13.9753 73.5514 13.705C73.5514 13.705 73.7514 13.357 74.2032 13.2478C74.655 13.1386 74.8813 12.7525 74.8813 12.7525Z"
              fill="#333333"/>
        <path d="M77.7855 12.7525C78.3903 12.5985 78.8462 12.8093 79.2406 13.0993C79.6359 13.3899 79.7919 13.7667 79.7572 13.9015C80.0804 13.7692 80.79 14.1796 81.1278 14.3764C81.1278 14.3764 81.3892 15.6551 80.721 16.1499C80.7557 16.4973 81.0008 16.9142 81.1278 16.9922C80.9076 17.3396 80.4408 17.4347 80.2431 17.3465C79.9127 17.804 80.0723 18.4239 80.2559 18.6216C79.7423 19.0853 78.517 19.2797 78.1581 19.3088C78.1581 19.3088 78.474 18.5683 78.6151 17.9582C79.005 16.2719 78.7951 14.1678 78.7951 14.1678C78.7951 14.1678 79.7058 15.2279 79.1982 17.7836C79.1124 18.2151 78.9913 18.6712 78.9913 18.6712C79.0758 18.6294 79.2819 18.6548 79.6609 18.463C79.4985 18.2882 79.5684 17.2512 80.0467 16.7424C80.0467 16.7424 80.2742 16.8474 80.4413 16.7779C80.3289 16.7088 80.1885 16.2681 80.1885 15.9309C80.7294 15.6077 80.672 15.0233 80.6453 14.716C80.3799 14.5436 79.9039 14.2507 79.305 14.5065C79.3208 14.3614 79.2798 13.9753 79.1155 13.705C79.1155 13.705 78.9154 13.3569 78.4637 13.2478C78.0119 13.1386 77.7855 12.7525 77.7855 12.7525Z"
              fill="#333333"/>
        <path fill-rule="evenodd" clip-rule="evenodd"
              d="M76.3826 13.7377C75.9472 13.7361 75.3722 13.852 75.3722 13.852L75.1994 12.1322L76.3618 11.7809L77.4671 12.1322L77.3724 13.852C77.3724 13.852 76.8109 13.7392 76.3826 13.7377ZM76.3826 13.2474C76.1412 13.2411 75.8304 13.2846 75.8304 13.2846L75.7594 12.4698L76.3618 12.3065L76.9598 12.4698V13.2846C76.9598 13.2846 76.6291 13.2539 76.3826 13.2474Z"
              fill="#333333"/>
        <path fill-rule="evenodd" clip-rule="evenodd"
              d="M76.3273 20.273C77.3335 20.2613 77.9776 19.9615 77.9776 19.9615L77.5842 18.7257C77.5842 18.7257 76.74 18.9704 76.3333 18.9708C75.9266 18.9704 75.0958 18.7257 75.0958 18.7257L74.689 19.9615C74.689 19.9615 75.3211 20.2613 76.3273 20.273ZM76.3333 19.8606C76.9062 19.8583 77.2602 19.7408 77.4523 19.6629L77.3471 19.2393C77.1099 19.3172 76.6985 19.4032 76.3333 19.4063C75.968 19.4032 75.5541 19.3391 75.317 19.2612L75.2254 19.6629C75.4175 19.7408 75.7604 19.8583 76.3333 19.8606Z"
              fill="#333333"/>
        <path fill-rule="evenodd" clip-rule="evenodd"
              d="M78.3701 14.3937H74.2965C74.3281 14.4377 74.4565 14.6514 74.5024 14.7748C74.5485 14.8985 74.5824 15.0233 74.5839 15.1002C74.5852 15.1611 74.5926 15.3502 74.6023 15.5973L74.6024 15.5997C74.6216 16.0898 74.6499 16.8103 74.6578 17.2359C74.6613 17.4236 74.703 17.6725 74.8536 17.876C75.007 18.0832 75.266 18.2337 75.6824 18.2337H75.9752C76.0041 18.2337 76.024 18.2411 76.0398 18.252C76.0566 18.2635 76.0722 18.2813 76.0877 18.3068C76.1035 18.3326 76.1199 18.3685 76.1352 18.4027C76.1491 18.4339 76.1646 18.4687 76.1829 18.5003C76.1892 18.5087 76.2144 18.5423 76.2379 18.5573C76.263 18.5734 76.2945 18.5828 76.3333 18.5828C76.373 18.5828 76.4048 18.573 76.4301 18.5574C76.4539 18.5428 76.4777 18.5085 76.4844 18.5003C76.5034 18.4676 76.5224 18.4317 76.5362 18.3998C76.5512 18.3655 76.566 18.3319 76.5813 18.3061C76.5965 18.2807 76.6115 18.2631 76.6278 18.2517C76.643 18.2411 76.6625 18.2337 76.6914 18.2337H76.9843C77.4006 18.2337 77.6596 18.0832 77.813 17.876C77.9636 17.6725 78.0053 17.4236 78.0088 17.2359C78.0168 16.8103 78.045 16.0899 78.0642 15.5998L78.0643 15.5975C78.074 15.3503 78.0814 15.1611 78.0827 15.1002C78.0842 15.0233 78.1181 14.8985 78.1642 14.7748C78.2101 14.6514 78.3385 14.4377 78.3701 14.3937ZM75.0718 14.9705C75.067 14.9443 75.0617 14.9188 75.0563 14.8957H77.6218C77.6146 14.9212 77.6096 14.9468 77.6059 14.9709C77.5967 15.0305 77.5951 15.1263 77.5951 15.1263C77.5751 15.6276 77.5351 16.6716 77.5351 17.1909C77.5351 17.4052 77.4659 17.5437 77.3746 17.6281C77.2821 17.7135 77.1601 17.7497 77.0441 17.7461C77.0286 17.7456 76.9976 17.7451 76.9646 17.7445C76.9204 17.7438 76.8726 17.743 76.8534 17.7421C76.7366 17.7368 76.6232 17.742 76.5246 17.7691C76.4531 17.7888 76.3874 17.8206 76.3342 17.8694C76.2098 17.7466 76.0092 17.6925 75.8039 17.7019C75.7847 17.7027 75.732 17.7035 75.683 17.7042C75.6453 17.7048 75.6098 17.7053 75.5937 17.7058C75.3756 17.7127 75.1548 17.5321 75.1548 17.1909C75.1548 16.6237 75.1179 15.6714 75.099 15.1828C75.099 15.1828 75.0854 15.0435 75.0718 14.9705Z"
              fill="#333333"/>
        <path d="M75.0504 14.8957C75.0558 14.9188 75.0611 14.9443 75.0659 14.9705C75.0795 15.0435 75.0931 15.1828 75.0931 15.1828C75.112 15.6715 75.1488 16.6237 75.1488 17.1909C75.1488 17.5321 75.3697 17.7127 75.5878 17.7058C75.6039 17.7053 75.6394 17.7048 75.6771 17.7042C75.7261 17.7035 75.7788 17.7027 75.798 17.7019C76.0033 17.6925 76.2039 17.7466 76.3283 17.8694C76.3815 17.8206 76.4472 17.7888 76.5187 17.7691C76.6173 17.742 76.7307 17.7368 76.8475 17.7421C76.8667 17.743 76.9145 17.7438 76.9587 17.7445C76.9917 17.7451 77.0227 17.7456 77.0381 17.7461C77.1542 17.7498 77.2762 17.7135 77.3687 17.6281C77.46 17.5437 77.5291 17.4052 77.5291 17.1909C77.5291 16.6716 77.5692 15.6276 77.5892 15.1263C77.5892 15.1263 77.5908 15.0305 77.5999 14.9709C77.6036 14.9469 77.6087 14.9212 77.6159 14.8957H75.0504Z"
              fill="#FFDD2D"/>
    </g>
    <path d="M85.1667 18.38V13.62H83.6667V18.38H85.1667Z" fill="white"/>
    <path d="M88.7844 18.38C90.6844 18.38 91.6244 17.37 91.6244 16C91.6244 14.61 90.6844 13.62 88.9444 13.62H86.2644V18.38H88.7844ZM88.6344 14.76C89.6644 14.76 90.0944 15.22 90.0944 16C90.0944 16.72 89.6644 17.27 88.6344 17.27H87.7144V14.76H88.6344Z"
          fill="white"/>
    <rect x="67.3333" y="8.33333" width="28.3333" height="15.3333" rx="7.66667" stroke="white" stroke-width="1.33333"/>
    <defs>
        <clipPath id="clip0_1_1462">
            <rect width="10.6667" height="10.6667" fill="white" transform="translate(71 10.6667)"/>
        </clipPath>
    </defs>
</svg>
