<svg class="button-tinkoff button-tinkoff-white" width="175" height="44" viewBox="0 0 175 44" fill="none"
     xmlns="http://www.w3.org/2000/svg">
    <rect class="button-tinkoff-background" width="175" height="44" rx="8"/>
    <path d="M52.246 19.18V18.032H44.14V19.18H47.542V28H48.844V19.18H52.246ZM54.7049 19.418V18.032H53.4729V19.418H54.7049ZM54.7049 28V20.888H53.4729V28H54.7049ZM60.2648 20.734C59.3128 20.734 58.5428 21.168 58.1088 21.826H58.0808V20.888H56.8908V28H58.1228V23.926C58.1228 22.498 58.9628 21.742 59.9708 21.742C60.9928 21.742 61.6088 22.274 61.6088 23.758V28H62.8408V23.66C62.8408 21.714 61.8888 20.734 60.2648 20.734ZM70.9912 28L67.4212 24.108L70.6132 20.888H69.0872L66.2172 23.842H66.1892V18.032H64.9572V28H66.1892V24.444H66.2172L69.3672 28H70.9912ZM74.4714 20.692C72.3854 20.692 71.0974 22.12 71.0974 24.444C71.0974 26.768 72.3854 28.196 74.4714 28.196C76.5574 28.196 77.8594 26.768 77.8594 24.444C77.8594 22.12 76.5574 20.692 74.4714 20.692ZM74.4714 21.7C75.7734 21.7 76.5714 22.75 76.5714 24.444C76.5714 26.138 75.7734 27.188 74.4714 27.188C73.1834 27.188 72.3854 26.138 72.3854 24.444C72.3854 22.75 73.1834 21.7 74.4714 21.7ZM85.9435 18.942C86.0835 18.942 86.2515 18.956 86.3495 18.984V18.032C86.1675 17.99 85.8875 17.962 85.6355 17.962C84.3755 17.962 83.6895 18.634 83.6895 20.006V20.888H81.0855V20.146C81.0855 19.264 81.4355 18.942 82.1215 18.942C82.2755 18.942 82.4435 18.956 82.5275 18.984V18.032C82.3595 17.99 82.0655 17.962 81.8135 17.962C80.5535 17.962 79.8675 18.634 79.8675 20.006V20.888H78.6215V21.868H79.8675V28H81.0855V21.868H83.6895V28H84.9075V21.868H86.3215V20.888H84.9075V20.146C84.9075 19.264 85.2575 18.942 85.9435 18.942Z"
          fill="black" fill-opacity="0.8"/>
    <rect x="94" y="12" width="37" height="20" rx="10" fill="black"/>
    <g clip-path="url(#clip0_1_1557)">
        <path d="M105.275 15.5834C104.444 15.5834 103.411 16.097 103.026 16.4584L103.177 16.8021C103.177 16.8021 102.006 16.8177 101.402 17.2064C100.798 17.5952 100.523 17.8595 100.225 18.4874C99.9273 18.5016 98.8106 18.9756 98.1639 19.4521C98.1639 19.4521 97.6204 21.5098 98.6499 22.3978L98 23.29C98.1639 23.8518 98.8717 24.4226 99.5752 24.4907C99.8917 24.8743 99.2777 25.6363 99.2777 25.6363C99.5376 26.4611 101.287 27.3678 102.332 27.3678L102.188 27.8535C102.188 27.8535 103.352 28.701 105.23 28.6218C106.818 28.6734 108.109 28.2942 108.437 27.8535L108.271 27.3678C109.721 27.1517 110.817 26.6789 111.426 25.6753C111.426 25.6753 110.972 24.7212 111.131 24.4819C111.834 24.4138 112.492 23.721 112.667 23.4184L112.029 22.4141C112.537 21.8426 112.822 20.3345 112.448 19.4521C111.802 18.9756 110.696 18.5881 110.398 18.5739C110.28 17.8768 109.521 17.3317 109.521 17.3317C108.803 16.707 107.496 16.8021 107.496 16.8021L107.602 16.4584C107.269 16.087 106.218 15.5834 105.275 15.5834Z"
              fill="white"/>
        <path d="M103.337 17.5347C102.505 17.323 101.878 17.6128 101.336 18.0116C100.793 18.4112 100.578 18.9292 100.626 19.1147C100.181 18.9327 99.2056 19.497 98.7412 19.7677C98.7412 19.7677 98.3817 21.5258 99.3006 22.2061C99.2528 22.6838 98.9159 23.257 98.7412 23.3644C99.0441 23.842 99.6859 23.9728 99.9577 23.8514C100.412 24.4805 100.192 25.3329 99.9401 25.6047C100.646 26.2423 102.331 26.5097 102.825 26.5496C102.825 26.5496 102.39 25.5315 102.196 24.6926C101.66 22.374 101.949 19.4808 101.949 19.4808C101.949 19.4808 100.697 20.9384 101.394 24.4525C101.512 25.0458 101.679 25.673 101.679 25.673C101.563 25.6154 101.279 25.6504 100.758 25.3867C100.981 25.1463 100.885 23.7205 100.228 23.0208C100.228 23.0208 99.9149 23.1652 99.6852 23.0696C99.8397 22.9747 100.033 22.3687 100.033 21.9051C99.289 21.4606 99.3679 20.657 99.4047 20.2345C99.7696 19.9976 100.424 19.5948 101.248 19.9464C101.226 19.747 101.282 19.2161 101.508 18.8444C101.508 18.8444 101.783 18.3658 102.404 18.2157C103.026 18.0656 103.337 17.5347 103.337 17.5347Z"
              fill="#333333"/>
        <path d="M107.33 17.5347C108.161 17.3229 108.788 17.6128 109.331 18.0116C109.874 18.4112 110.089 18.9292 110.041 19.1146C110.485 18.9327 111.461 19.497 111.926 19.7677C111.926 19.7677 112.285 21.5258 111.366 22.2061C111.414 22.6838 111.751 23.257 111.926 23.3644C111.623 23.842 110.981 23.9728 110.709 23.8514C110.255 24.4805 110.474 25.3329 110.727 25.6047C110.02 26.2423 108.336 26.5097 107.842 26.5496C107.842 26.5496 108.277 25.5315 108.471 24.6925C109.007 22.3739 108.718 19.4808 108.718 19.4808C108.718 19.4808 109.97 20.9384 109.272 24.4525C109.154 25.0458 108.988 25.673 108.988 25.673C109.104 25.6154 109.387 25.6503 109.908 25.3867C109.685 25.1463 109.781 23.7204 110.439 23.0208C110.439 23.0208 110.752 23.1652 110.982 23.0696C110.827 22.9746 110.634 22.3687 110.634 21.9051C111.378 21.4606 111.299 20.657 111.262 20.2345C110.897 19.9975 110.243 19.5948 109.419 19.9464C109.441 19.747 109.384 19.2161 109.159 18.8444C109.159 18.8444 108.883 18.3658 108.262 18.2157C107.641 18.0656 107.33 17.5347 107.33 17.5347Z"
              fill="#333333"/>
        <path fill-rule="evenodd" clip-rule="evenodd"
              d="M105.401 18.8893C104.803 18.8871 104.012 19.0465 104.012 19.0465L103.774 16.6818L105.373 16.1987L106.892 16.6818L106.762 19.0465C106.762 19.0465 105.99 18.8914 105.401 18.8893ZM105.401 18.2152C105.069 18.2065 104.642 18.2664 104.642 18.2664L104.544 17.146L105.373 16.9214L106.195 17.146V18.2664C106.195 18.2664 105.74 18.2241 105.401 18.2152Z"
              fill="#333333"/>
        <path fill-rule="evenodd" clip-rule="evenodd"
              d="M105.325 27.8754C106.709 27.8592 107.594 27.4471 107.594 27.4471L107.053 25.7478C107.053 25.7478 105.893 26.0843 105.333 26.0848C104.774 26.0843 103.632 25.7479 103.632 25.7479L103.072 27.4471C103.072 27.4471 103.942 27.8592 105.325 27.8754ZM105.333 27.3084C106.121 27.3052 106.608 27.1435 106.872 27.0365L106.727 26.454C106.401 26.5611 105.836 26.6794 105.333 26.6836C104.831 26.6794 104.262 26.5912 103.936 26.4841L103.81 27.0365C104.074 27.1435 104.546 27.3052 105.333 27.3084Z"
              fill="#333333"/>
        <path fill-rule="evenodd" clip-rule="evenodd"
              d="M108.134 19.7913H102.533C102.576 19.8518 102.753 20.1457 102.816 20.3153C102.879 20.4854 102.926 20.657 102.928 20.7628C102.93 20.8465 102.94 21.1065 102.953 21.4463L102.953 21.4496C102.98 22.1235 103.019 23.1141 103.029 23.6993C103.034 23.9574 103.092 24.2997 103.299 24.5795C103.51 24.8645 103.866 25.0713 104.438 25.0713H104.841C104.881 25.0713 104.908 25.0816 104.93 25.0965C104.953 25.1123 104.974 25.1368 104.996 25.1718C105.017 25.2073 105.04 25.2567 105.061 25.3037C105.08 25.3466 105.101 25.3945 105.127 25.4379C105.135 25.4494 105.17 25.4957 105.202 25.5163C105.237 25.5384 105.28 25.5514 105.333 25.5514C105.388 25.5514 105.432 25.5379 105.466 25.5165C105.499 25.4963 105.532 25.4493 105.541 25.4379C105.567 25.393 105.593 25.3436 105.612 25.2997C105.633 25.2525 105.653 25.2063 105.674 25.1709C105.695 25.1359 105.716 25.1117 105.738 25.0961C105.759 25.0815 105.786 25.0713 105.826 25.0713H106.228C106.801 25.0713 107.157 24.8645 107.368 24.5795C107.575 24.2997 107.632 23.9574 107.637 23.6993C107.648 23.1141 107.687 22.1236 107.713 21.4497L107.713 21.4466C107.727 21.1067 107.737 20.8465 107.739 20.7628C107.741 20.657 107.787 20.4854 107.851 20.3153C107.914 20.1457 108.09 19.8518 108.134 19.7913ZM103.599 20.5844C103.592 20.5484 103.585 20.5133 103.577 20.4816H107.105C107.095 20.5167 107.088 20.5519 107.083 20.585C107.07 20.6669 107.068 20.7987 107.068 20.7987C107.041 21.488 106.986 22.9234 106.986 23.6375C106.986 23.9321 106.891 24.1225 106.765 24.2386C106.638 24.356 106.47 24.4059 106.311 24.4008C106.289 24.4002 106.247 24.3995 106.201 24.3987C106.141 24.3977 106.075 24.3966 106.048 24.3954C105.888 24.3881 105.732 24.3953 105.596 24.4325C105.498 24.4596 105.408 24.5033 105.335 24.5704C105.164 24.4016 104.888 24.3271 104.605 24.34C104.579 24.3412 104.506 24.3423 104.439 24.3433C104.387 24.3441 104.338 24.3448 104.316 24.3455C104.016 24.355 103.713 24.1066 103.713 23.6375C103.713 22.8575 103.662 21.5482 103.636 20.8763C103.636 20.8763 103.617 20.6849 103.599 20.5844Z"
              fill="#333333"/>
        <path d="M103.569 20.4816C103.577 20.5134 103.584 20.5484 103.591 20.5844C103.61 20.6849 103.628 20.8763 103.628 20.8763C103.654 21.5482 103.705 22.8575 103.705 23.6375C103.705 24.1066 104.009 24.355 104.309 24.3455C104.331 24.3448 104.379 24.3441 104.431 24.3433C104.499 24.3423 104.571 24.3412 104.597 24.34C104.88 24.3271 105.156 24.4016 105.327 24.5704C105.4 24.5033 105.49 24.4596 105.588 24.4325C105.724 24.3953 105.88 24.3881 106.04 24.3954C106.067 24.3966 106.133 24.3977 106.193 24.3987C106.239 24.3995 106.281 24.4002 106.303 24.4008C106.462 24.4059 106.63 24.356 106.757 24.2386C106.883 24.1225 106.978 23.9321 106.978 23.6375C106.978 22.9234 107.033 21.488 107.06 20.7987C107.06 20.7987 107.063 20.6669 107.075 20.585C107.08 20.5519 107.087 20.5167 107.097 20.4816H103.569Z"
              fill="#FFDD2D"/>
    </g>
    <path d="M117.729 25.2725V18.7275H115.667V25.2725H117.729Z" fill="white"/>
    <path d="M122.704 25.2725C125.316 25.2725 126.609 23.8837 126.609 22C126.609 20.0887 125.316 18.7275 122.924 18.7275H119.239V25.2725H122.704ZM122.497 20.295C123.914 20.295 124.505 20.9275 124.505 22C124.505 22.99 123.914 23.7462 122.497 23.7462H121.232V20.295H122.497Z"
          fill="white"/>
    <defs>
        <clipPath id="clip0_1_1557">
            <rect width="14.6667" height="14.6667" fill="white" transform="translate(98 14.6667)"/>
        </clipPath>
    </defs>
</svg>
