<svg class="button-tinkoff button-tinkoff-white" width="127" height="32" viewBox="0 0 127 32" fill="none"
     xmlns="http://www.w3.org/2000/svg">
    <rect class="button-tinkoff-background" width="127" height="32" rx="8"/>
    <path d="M37.89 13.7V12.88H32.1V13.7H34.53V20H35.46V13.7H37.89ZM39.6463 13.87V12.88H38.7663V13.87H39.6463ZM39.6463 20V14.92H38.7663V20H39.6463ZM43.6177 14.81C42.9377 14.81 42.3877 15.12 42.0777 15.59H42.0577V14.92H41.2077V20H42.0877V17.09C42.0877 16.07 42.6877 15.53 43.4077 15.53C44.1377 15.53 44.5777 15.91 44.5777 16.97V20H45.4577V16.9C45.4577 15.51 44.7777 14.81 43.6177 14.81ZM51.2795 20L48.7295 17.22L51.0095 14.92H49.9195L47.8695 17.03H47.8495V12.88H46.9695V20H47.8495V17.46H47.8695L50.1195 20H51.2795ZM53.7653 14.78C52.2753 14.78 51.3553 15.8 51.3553 17.46C51.3553 19.12 52.2753 20.14 53.7653 20.14C55.2553 20.14 56.1853 19.12 56.1853 17.46C56.1853 15.8 55.2553 14.78 53.7653 14.78ZM53.7653 15.5C54.6953 15.5 55.2653 16.25 55.2653 17.46C55.2653 18.67 54.6953 19.42 53.7653 19.42C52.8453 19.42 52.2753 18.67 52.2753 17.46C52.2753 16.25 52.8453 15.5 53.7653 15.5ZM61.9596 13.53C62.0596 13.53 62.1796 13.54 62.2496 13.56V12.88C62.1196 12.85 61.9196 12.83 61.7396 12.83C60.8396 12.83 60.3496 13.31 60.3496 14.29V14.92H58.4896V14.39C58.4896 13.76 58.7396 13.53 59.2296 13.53C59.3396 13.53 59.4596 13.54 59.5196 13.56V12.88C59.3996 12.85 59.1896 12.83 59.0096 12.83C58.1096 12.83 57.6196 13.31 57.6196 14.29V14.92H56.7296V15.62H57.6196V20H58.4896V15.62H60.3496V20H61.2196V15.62H62.2296V14.92H61.2196V14.39C61.2196 13.76 61.4696 13.53 61.9596 13.53Z"
          fill="black" fill-opacity="0.8"/>
    <rect x="68" y="9" width="27" height="14" rx="7" fill="black"/>
    <g clip-path="url(#clip0_1_1443)">
        <path d="M75.9574 11.3333C75.353 11.3333 74.602 11.7069 74.3222 11.9697L74.4322 12.2196C74.4322 12.2196 73.58 12.231 73.1408 12.5137C72.7016 12.7964 72.5013 12.9887 72.285 13.4453C72.0684 13.4556 71.2563 13.8004 70.786 14.1469C70.786 14.1469 70.3907 15.6435 71.1394 16.2893L70.6667 16.9382C70.786 17.3467 71.3007 17.7618 71.8123 17.8114C72.0425 18.0903 71.596 18.6445 71.596 18.6445C71.785 19.2444 73.0574 19.9038 73.8174 19.9038L73.7128 20.257C73.7128 20.257 74.5592 20.8734 75.9251 20.8158C77.0798 20.8533 78.019 20.5775 78.2573 20.257L78.1367 19.9038C79.1913 19.7466 79.9879 19.4028 80.4311 18.6729C80.4311 18.6729 80.1011 17.979 80.2163 17.805C80.7278 17.7554 81.2062 17.2516 81.3334 17.0315L80.8694 16.3011C81.2395 15.8854 81.4466 14.7887 81.1746 14.1469C80.7042 13.8004 79.9001 13.5186 79.6835 13.5082C79.5975 13.0012 79.0458 12.6048 79.0458 12.6048C78.5234 12.1505 77.5731 12.2196 77.5731 12.2196L77.6503 11.9697C77.4081 11.6996 76.6431 11.3333 75.9574 11.3333Z"
              fill="white"/>
        <path d="M74.548 12.7525C73.9432 12.5985 73.4873 12.8093 73.0929 13.0993C72.6976 13.3899 72.5417 13.7666 72.5763 13.9015C72.2531 13.7692 71.5435 14.1796 71.2057 14.3764C71.2057 14.3764 70.9443 15.6551 71.6125 16.1499C71.5778 16.4972 71.3328 16.9142 71.2057 16.9922C71.426 17.3396 71.8927 17.4347 72.0904 17.3464C72.4208 17.804 72.2612 18.4239 72.0776 18.6216C72.5912 19.0853 73.8165 19.2797 74.1754 19.3088C74.1754 19.3088 73.8595 18.5683 73.7184 17.9582C73.3286 16.2719 73.5384 14.1678 73.5384 14.1678C73.5384 14.1678 72.6277 15.2279 73.1353 17.7836C73.2211 18.2151 73.3422 18.6712 73.3422 18.6712C73.2577 18.6294 73.0516 18.6547 72.6726 18.463C72.835 18.2882 72.7652 17.2512 72.2869 16.7424C72.2869 16.7424 72.0593 16.8474 71.8922 16.7778C72.0046 16.7088 72.145 16.2681 72.145 15.9309C71.6041 15.6076 71.6615 15.0232 71.6882 14.7159C71.9536 14.5436 72.4296 14.2507 73.0285 14.5064C73.0127 14.3614 73.0537 13.9753 73.218 13.7049C73.218 13.7049 73.4181 13.3569 73.8699 13.2477C74.3217 13.1386 74.548 12.7525 74.548 12.7525Z"
              fill="#333333"/>
        <path d="M77.452 12.7525C78.0567 12.5985 78.5126 12.8092 78.9071 13.0993C79.3023 13.3899 79.4583 13.7666 79.4236 13.9015C79.7468 13.7692 80.4565 14.1795 80.7943 14.3764C80.7943 14.3764 81.0557 15.6551 80.3874 16.1498C80.4222 16.4972 80.6672 16.9141 80.7943 16.9922C80.574 17.3396 80.1072 17.4347 79.9095 17.3464C79.5791 17.8039 79.7388 18.4239 79.9223 18.6215C79.4088 19.0852 78.1834 19.2797 77.8245 19.3087C77.8245 19.3087 78.1405 18.5683 78.2815 17.9582C78.6714 16.2719 78.4615 14.1678 78.4615 14.1678C78.4615 14.1678 79.3722 15.2279 78.8646 17.7836C78.7789 18.2151 78.6577 18.6712 78.6577 18.6712C78.7422 18.6293 78.9483 18.6547 79.3273 18.463C79.165 18.2882 79.2348 17.2512 79.7131 16.7424C79.7131 16.7424 79.9407 16.8474 80.1077 16.7778C79.9953 16.7088 79.855 16.2681 79.855 15.9309C80.3958 15.6076 80.3384 15.0232 80.3117 14.7159C80.0463 14.5436 79.5703 14.2507 78.9715 14.5064C78.9872 14.3614 78.9462 13.9753 78.7819 13.7049C78.7819 13.7049 78.5819 13.3569 78.1301 13.2477C77.6783 13.1386 77.452 12.7525 77.452 12.7525Z"
              fill="#333333"/>
        <path fill-rule="evenodd" clip-rule="evenodd"
              d="M76.0494 13.7376C75.614 13.7361 75.039 13.852 75.039 13.852L74.8662 12.1322L76.0286 11.7809L77.1339 12.1322L77.0392 13.852C77.0392 13.852 76.4777 13.7392 76.0494 13.7376ZM76.0494 13.2474C75.808 13.2411 75.4972 13.2846 75.4972 13.2846L75.4262 12.4698L76.0286 12.3064L76.6266 12.4698V13.2846C76.6266 13.2846 76.2959 13.2539 76.0494 13.2474Z"
              fill="#333333"/>
        <path fill-rule="evenodd" clip-rule="evenodd"
              d="M75.994 20.273C77.0002 20.2612 77.6443 19.9615 77.6443 19.9615L77.2509 18.7257C77.2509 18.7257 76.4067 18.9704 76 18.9707C75.5933 18.9704 74.7625 18.7257 74.7625 18.7257L74.3557 19.9615C74.3557 19.9615 74.9878 20.2612 75.994 20.273ZM76 19.8606C76.5729 19.8583 76.9269 19.7407 77.119 19.6629L77.0138 19.2393C76.7767 19.3172 76.3653 19.4032 76 19.4062C75.6348 19.4032 75.2208 19.339 74.9837 19.2611L74.8921 19.6629C75.0842 19.7407 75.4271 19.8583 76 19.8606Z"
              fill="#333333"/>
        <path fill-rule="evenodd" clip-rule="evenodd"
              d="M78.0368 14.3936H73.9633C73.9949 14.4377 74.1233 14.6514 74.1692 14.7747C74.2152 14.8985 74.2491 15.0233 74.2507 15.1002C74.2519 15.1611 74.2593 15.3501 74.269 15.5973L74.2691 15.5997C74.2884 16.0898 74.3166 16.8102 74.3246 17.2358C74.3281 17.4236 74.3698 17.6725 74.5204 17.876C74.6737 18.0832 74.9327 18.2337 75.3491 18.2337H75.642C75.6709 18.2337 75.6908 18.2411 75.7065 18.2519C75.7234 18.2635 75.7389 18.2813 75.7545 18.3068C75.7703 18.3325 75.7866 18.3685 75.8019 18.4027C75.8158 18.4338 75.8313 18.4687 75.8497 18.5003C75.8559 18.5086 75.8811 18.5423 75.9046 18.5573C75.9297 18.5734 75.9612 18.5828 76.0001 18.5828C76.0397 18.5828 76.0715 18.573 76.0968 18.5574C76.1206 18.5428 76.1444 18.5085 76.1511 18.5003C76.1701 18.4676 76.1891 18.4317 76.203 18.3998C76.2179 18.3654 76.2328 18.3319 76.2481 18.3061C76.2632 18.2806 76.2783 18.263 76.2946 18.2517C76.3098 18.2411 76.3293 18.2337 76.3582 18.2337H76.651C77.0674 18.2337 77.3264 18.0832 77.4797 17.876C77.6303 17.6725 77.672 17.4236 77.6756 17.2358C77.6835 16.8102 77.7118 16.0898 77.731 15.5998L77.7311 15.5975C77.7408 15.3503 77.7482 15.1611 77.7494 15.1002C77.751 15.0233 77.7849 14.8985 77.8309 14.7747C77.8769 14.6514 78.0053 14.4377 78.0368 14.3936ZM74.7386 14.9705C74.7337 14.9443 74.7285 14.9188 74.723 14.8957H77.2886C77.2814 14.9212 77.2763 14.9468 77.2726 14.9709C77.2635 15.0305 77.2618 15.1263 77.2618 15.1263C77.2419 15.6276 77.2018 16.6716 77.2018 17.1909C77.2018 17.4051 77.1327 17.5436 77.0413 17.628C76.9489 17.7135 76.8268 17.7497 76.7108 17.746C76.6954 17.7455 76.6644 17.745 76.6314 17.7445C76.5872 17.7438 76.5393 17.743 76.5201 17.7421C76.4034 17.7367 76.29 17.742 76.1914 17.7691C76.1198 17.7888 76.0541 17.8205 76.001 17.8694C75.8766 17.7466 75.676 17.6924 75.4707 17.7018C75.4515 17.7027 75.3987 17.7035 75.3498 17.7042C75.312 17.7047 75.2765 17.7053 75.2605 17.7058C75.0423 17.7127 74.8215 17.5321 74.8215 17.1909C74.8215 16.6236 74.7847 15.6714 74.7658 15.1828C74.7658 15.1828 74.7521 15.0435 74.7386 14.9705Z"
              fill="#333333"/>
        <path d="M74.7173 14.8957C74.7228 14.9188 74.728 14.9443 74.7329 14.9705C74.7464 15.0435 74.7601 15.1828 74.7601 15.1828C74.779 15.6714 74.8158 16.6236 74.8158 17.1909C74.8158 17.5321 75.0366 17.7127 75.2548 17.7058C75.2708 17.7053 75.3063 17.7048 75.3441 17.7042C75.393 17.7035 75.4458 17.7027 75.4649 17.7018C75.6703 17.6924 75.8709 17.7466 75.9953 17.8694C76.0484 17.8205 76.1141 17.7888 76.1857 17.7691C76.2843 17.742 76.3977 17.7368 76.5144 17.7421C76.5336 17.743 76.5815 17.7438 76.6257 17.7445C76.6587 17.745 76.6896 17.7456 76.7051 17.746C76.8211 17.7497 76.9432 17.7135 77.0356 17.628C77.127 17.5437 77.1961 17.4051 77.1961 17.1909C77.1961 16.6716 77.2362 15.6276 77.2561 15.1263C77.2561 15.1263 77.2578 15.0305 77.2669 14.9709C77.2706 14.9468 77.2757 14.9212 77.2829 14.8957H74.7173Z"
              fill="#FFDD2D"/>
    </g>
    <path d="M84.8333 18.38V13.62H83.3333V18.38H84.8333Z" fill="white"/>
    <path d="M88.4509 18.38C90.3509 18.38 91.2909 17.37 91.2909 16C91.2909 14.61 90.3509 13.62 88.6109 13.62H85.9309V18.38H88.4509ZM88.3009 14.76C89.3309 14.76 89.7609 15.22 89.7609 16C89.7609 16.72 89.3309 17.27 88.3009 17.27H87.3809V14.76H88.3009Z"
          fill="white"/>
    <defs>
        <clipPath id="clip0_1_1443">
            <rect width="10.6667" height="10.6667" fill="white" transform="translate(70.6667 10.6667)"/>
        </clipPath>
    </defs>
</svg>
