<svg class="button-tinkoff button-tinkoff-white" width="223" height="60" viewBox="0 0 223 60" fill="none"
     xmlns="http://www.w3.org/2000/svg">
    <rect class="button-tinkoff-background" width="223" height="60" rx="8"/>
    <path d="M66.602 25.66V24.184H56.18V25.66H60.554V37H62.228V25.66H66.602ZM69.7634 25.966V24.184H68.1794V25.966H69.7634ZM69.7634 37V27.856H68.1794V37H69.7634ZM76.9119 27.658C75.6879 27.658 74.6979 28.216 74.1399 29.062H74.1039V27.856H72.5739V37H74.1579V31.762C74.1579 29.926 75.2379 28.954 76.5339 28.954C77.8479 28.954 78.6399 29.638 78.6399 31.546V37H80.2239V31.42C80.2239 28.918 78.9999 27.658 76.9119 27.658ZM90.703 37L86.113 31.996L90.217 27.856H88.255L84.565 31.654H84.529V24.184H82.945V37H84.529V32.428H84.565L88.615 37H90.703ZM95.1776 27.604C92.4956 27.604 90.8396 29.44 90.8396 32.428C90.8396 35.416 92.4956 37.252 95.1776 37.252C97.8596 37.252 99.5336 35.416 99.5336 32.428C99.5336 29.44 97.8596 27.604 95.1776 27.604ZM95.1776 28.9C96.8516 28.9 97.8776 30.25 97.8776 32.428C97.8776 34.606 96.8516 35.956 95.1776 35.956C93.5216 35.956 92.4956 34.606 92.4956 32.428C92.4956 30.25 93.5216 28.9 95.1776 28.9ZM109.927 25.354C110.107 25.354 110.323 25.372 110.449 25.408V24.184C110.215 24.13 109.855 24.094 109.531 24.094C107.911 24.094 107.029 24.958 107.029 26.722V27.856H103.681V26.902C103.681 25.768 104.131 25.354 105.013 25.354C105.211 25.354 105.427 25.372 105.535 25.408V24.184C105.319 24.13 104.941 24.094 104.617 24.094C102.997 24.094 102.115 24.958 102.115 26.722V27.856H100.513V29.116H102.115V37H103.681V29.116H107.029V37H108.595V29.116H110.413V27.856H108.595V26.902C108.595 25.768 109.045 25.354 109.927 25.354Z"
          fill="black" fill-opacity="0.8"/>
    <rect x="120" y="17.5" width="47" height="25" rx="12.5" fill="black"/>
    <g clip-path="url(#clip0_1_1671)">
        <path d="M134.259 21.8334C133.201 21.8334 131.887 22.4871 131.397 22.947L131.59 23.3845C131.59 23.3845 130.098 23.4044 129.33 23.8991C128.561 24.3938 128.211 24.7303 127.832 25.5294C127.453 25.5475 126.032 26.1507 125.209 26.7572C125.209 26.7572 124.517 29.3761 125.827 30.5063L125 31.6418C125.209 32.3568 126.109 33.0833 127.005 33.17C127.408 33.6582 126.626 34.628 126.626 34.628C126.957 35.6778 129.184 36.8318 130.514 36.8318L130.331 37.4499C130.331 37.4499 131.812 38.5285 134.202 38.4277C136.223 38.4934 137.866 38.0108 138.283 37.4499L138.072 36.8318C139.918 36.5567 141.312 35.955 142.088 34.6776C142.088 34.6776 141.51 33.4634 141.712 33.1587C142.607 33.0721 143.444 32.1903 143.667 31.8053L142.855 30.527C143.502 29.7996 143.865 27.8802 143.389 26.7572C142.566 26.1507 141.158 25.6576 140.779 25.6395C140.629 24.7522 139.663 24.0586 139.663 24.0586C138.749 23.2634 137.086 23.3845 137.086 23.3845L137.221 22.947C136.797 22.4744 135.459 21.8334 134.259 21.8334Z"
              fill="white"/>
        <path d="M131.792 24.3169C130.734 24.0474 129.936 24.4163 129.246 24.9238C128.554 25.4324 128.281 26.0917 128.342 26.3277C127.776 26.0962 126.534 26.8143 125.943 27.1589C125.943 27.1589 125.486 29.3965 126.655 30.2624C126.595 30.8703 126.166 31.5999 125.943 31.7365C126.329 32.3444 127.146 32.5108 127.492 32.3564C128.07 33.157 127.79 34.2419 127.469 34.5878C128.368 35.3993 130.512 35.7396 131.14 35.7904C131.14 35.7904 130.587 34.4946 130.341 33.4269C129.658 30.4759 130.026 26.7938 130.026 26.7938C130.026 26.7938 128.432 28.6489 129.32 33.1213C129.47 33.8765 129.682 34.6747 129.682 34.6747C129.534 34.6015 129.174 34.6459 128.51 34.3104C128.795 34.0044 128.672 32.1897 127.835 31.2992C127.835 31.2992 127.437 31.483 127.145 31.3613C127.341 31.2405 127.587 30.4693 127.587 29.8792C126.641 29.3135 126.741 28.2908 126.788 27.753C127.252 27.4514 128.085 26.9388 129.133 27.3864C129.106 27.1325 129.177 26.4569 129.465 25.9838C129.465 25.9838 129.815 25.3747 130.606 25.1837C131.396 24.9926 131.792 24.3169 131.792 24.3169Z"
              fill="#333333"/>
        <path d="M136.874 24.3169C137.933 24.0474 138.731 24.4163 139.421 24.9238C140.113 25.4324 140.385 26.0917 140.325 26.3277C140.89 26.0962 142.132 26.8143 142.723 27.1588C142.723 27.1588 143.181 29.3965 142.011 30.2623C142.072 30.8703 142.501 31.5999 142.723 31.7365C142.338 32.3444 141.521 32.5108 141.175 32.3564C140.597 33.157 140.876 34.2419 141.198 34.5878C140.299 35.3993 138.155 35.7396 137.526 35.7904C137.526 35.7904 138.079 34.4946 138.326 33.4269C139.008 30.4759 138.641 26.7938 138.641 26.7938C138.641 26.7938 140.235 28.6489 139.347 33.1213C139.197 33.8765 138.985 34.6747 138.985 34.6747C139.132 34.6015 139.493 34.6459 140.156 34.3104C139.872 34.0044 139.994 32.1897 140.831 31.2992C140.831 31.2992 141.23 31.483 141.522 31.3613C141.325 31.2405 141.08 30.4693 141.08 29.8792C142.026 29.3135 141.926 28.2908 141.879 27.753C141.415 27.4514 140.582 26.9388 139.534 27.3864C139.561 27.1325 139.489 26.4569 139.202 25.9838C139.202 25.9838 138.852 25.3747 138.061 25.1836C137.27 24.9926 136.874 24.3169 136.874 24.3169Z"
              fill="#333333"/>
        <path fill-rule="evenodd" clip-rule="evenodd"
              d="M134.42 26.0409C133.658 26.0381 132.652 26.241 132.652 26.241L132.349 23.2314L134.384 22.6165L136.318 23.2314L136.152 26.241C136.152 26.241 135.169 26.0436 134.42 26.0409ZM134.42 25.183C133.997 25.1719 133.454 25.2481 133.454 25.2481L133.329 23.8222L134.384 23.5363L135.43 23.8222V25.2481C135.43 25.2481 134.851 25.1943 134.42 25.183Z"
              fill="#333333"/>
        <path fill-rule="evenodd" clip-rule="evenodd"
              d="M134.323 37.4778C136.084 37.4572 137.211 36.9326 137.211 36.9326L136.523 34.77C136.523 34.77 135.045 35.1981 134.333 35.1988C133.622 35.1981 132.168 34.77 132.168 34.77L131.456 36.9326C131.456 36.9326 132.562 37.4572 134.323 37.4778ZM134.333 36.7561C135.336 36.7521 135.956 36.5463 136.292 36.41L136.108 35.6688C135.693 35.8051 134.973 35.9556 134.333 35.9609C133.694 35.9556 132.97 35.8433 132.555 35.707L132.395 36.41C132.731 36.5463 133.331 36.7521 134.333 36.7561Z"
              fill="#333333"/>
        <path fill-rule="evenodd" clip-rule="evenodd"
              d="M137.898 27.1889H130.769C130.824 27.2659 131.049 27.64 131.129 27.8558C131.21 28.0723 131.269 28.2907 131.272 28.4253C131.274 28.5319 131.287 28.8628 131.304 29.2953L131.304 29.2995C131.338 30.1571 131.387 31.4179 131.401 32.1627C131.407 32.4913 131.48 32.9269 131.744 33.283C132.012 33.6457 132.466 33.9089 133.194 33.9089H133.707C133.757 33.9089 133.792 33.922 133.82 33.9409C133.849 33.9611 133.876 33.9923 133.904 34.0369C133.931 34.082 133.96 34.1449 133.987 34.2047C134.011 34.2592 134.038 34.3202 134.07 34.3755C134.081 34.3901 134.125 34.449 134.166 34.4753C134.21 34.5034 134.265 34.5199 134.333 34.5199C134.403 34.5199 134.458 34.5028 134.503 34.4755C134.544 34.4499 134.586 34.3899 134.598 34.3755C134.631 34.3184 134.664 34.2554 134.688 34.1996C134.715 34.1395 134.741 34.0808 134.767 34.0357C134.794 33.9912 134.82 33.9604 134.849 33.9405C134.875 33.9219 134.909 33.9089 134.96 33.9089H135.473C136.201 33.9089 136.654 33.6457 136.923 33.283C137.186 32.9269 137.259 32.4913 137.265 32.1627C137.279 31.4179 137.329 30.1573 137.362 29.2996L137.363 29.2956C137.38 28.863 137.393 28.5319 137.395 28.4253C137.397 28.2907 137.457 28.0723 137.537 27.8558C137.618 27.64 137.842 27.2659 137.898 27.1889ZM132.126 28.1983C132.117 28.1525 132.108 28.1079 132.099 28.0674H136.588C136.576 28.1121 136.567 28.157 136.56 28.1991C136.544 28.3033 136.541 28.471 136.541 28.471C136.507 29.3483 136.436 31.1753 136.436 32.0841C136.436 32.459 136.315 32.7014 136.156 32.8491C135.994 32.9986 135.78 33.062 135.577 33.0556C135.55 33.0547 135.496 33.0538 135.438 33.0529C135.361 33.0516 135.277 33.0502 135.243 33.0487C135.039 33.0393 134.841 33.0485 134.668 33.096C134.543 33.1304 134.428 33.1859 134.335 33.2715C134.117 33.0565 133.766 32.9618 133.407 32.9782C133.373 32.9797 133.281 32.9811 133.195 32.9824C133.129 32.9833 133.067 32.9842 133.039 32.9851C132.657 32.9972 132.271 32.6811 132.271 32.0841C132.271 31.0914 132.206 29.425 132.173 28.5699C132.173 28.5699 132.149 28.3262 132.126 28.1983Z"
              fill="#333333"/>
        <path d="M132.088 28.0674C132.098 28.1079 132.107 28.1526 132.116 28.1983C132.139 28.3262 132.163 28.5699 132.163 28.5699C132.196 29.425 132.261 31.0914 132.261 32.0841C132.261 32.6811 132.647 32.9972 133.029 32.9851C133.057 32.9843 133.119 32.9833 133.185 32.9824C133.271 32.9811 133.363 32.9798 133.397 32.9782C133.756 32.9618 134.107 33.0565 134.325 33.2715C134.418 33.186 134.533 33.1304 134.658 33.096C134.831 33.0485 135.029 33.0393 135.233 33.0487C135.267 33.0502 135.351 33.0516 135.428 33.0529C135.486 33.0539 135.54 33.0547 135.567 33.0556C135.77 33.062 135.984 32.9986 136.146 32.8491C136.305 32.7014 136.426 32.459 136.426 32.0841C136.426 31.1753 136.497 29.3483 136.531 28.471C136.531 28.471 136.534 28.3033 136.55 28.1991C136.557 28.157 136.566 28.1121 136.578 28.0674H132.088Z"
              fill="#FFDD2D"/>
    </g>
    <path d="M150.292 34.165V25.835H147.667V34.165H150.292Z" fill="white"/>
    <path d="M156.623 34.165C159.948 34.165 161.593 32.3975 161.593 30C161.593 27.5675 159.948 25.835 156.903 25.835H152.213V34.165H156.623ZM156.36 27.83C158.163 27.83 158.915 28.635 158.915 30C158.915 31.26 158.163 32.2225 156.36 32.2225H154.75V27.83H156.36Z"
          fill="white"/>
    <defs>
        <clipPath id="clip0_1_1671">
            <rect width="18.6667" height="18.6667" fill="white" transform="translate(125 20.6667)"/>
        </clipPath>
    </defs>
</svg>
