<svg class="button-tinkoff button-tinkoff-yellow" width="127" height="32" viewBox="0 0 127 32" fill="none"
     xmlns="http://www.w3.org/2000/svg">
    <rect class="button-tinkoff-background" width="127" height="32" rx="8"/>
    <path d="M37.89 13.7V12.88H32.1V13.7H34.53V20H35.46V13.7H37.89ZM39.6463 13.87V12.88H38.7663V13.87H39.6463ZM39.6463 20V14.92H38.7663V20H39.6463ZM43.6177 14.81C42.9377 14.81 42.3877 15.12 42.0777 15.59H42.0577V14.92H41.2077V20H42.0877V17.09C42.0877 16.07 42.6877 15.53 43.4077 15.53C44.1377 15.53 44.5777 15.91 44.5777 16.97V20H45.4577V16.9C45.4577 15.51 44.7777 14.81 43.6177 14.81ZM51.2795 20L48.7295 17.22L51.0095 14.92H49.9195L47.8695 17.03H47.8495V12.88H46.9695V20H47.8495V17.46H47.8695L50.1195 20H51.2795ZM53.7653 14.78C52.2753 14.78 51.3553 15.8 51.3553 17.46C51.3553 19.12 52.2753 20.14 53.7653 20.14C55.2553 20.14 56.1853 19.12 56.1853 17.46C56.1853 15.8 55.2553 14.78 53.7653 14.78ZM53.7653 15.5C54.6953 15.5 55.2653 16.25 55.2653 17.46C55.2653 18.67 54.6953 19.42 53.7653 19.42C52.8453 19.42 52.2753 18.67 52.2753 17.46C52.2753 16.25 52.8453 15.5 53.7653 15.5ZM61.9596 13.53C62.0596 13.53 62.1796 13.54 62.2496 13.56V12.88C62.1196 12.85 61.9196 12.83 61.7396 12.83C60.8396 12.83 60.3496 13.31 60.3496 14.29V14.92H58.4896V14.39C58.4896 13.76 58.7396 13.53 59.2296 13.53C59.3396 13.53 59.4596 13.54 59.5196 13.56V12.88C59.3996 12.85 59.1896 12.83 59.0096 12.83C58.1096 12.83 57.6196 13.31 57.6196 14.29V14.92H56.7296V15.62H57.6196V20H58.4896V15.62H60.3496V20H61.2196V15.62H62.2296V14.92H61.2196V14.39C61.2196 13.76 61.4696 13.53 61.9596 13.53Z"
          fill="black" fill-opacity="0.8"/>
    <rect x="68" y="9" width="27" height="14" rx="7" fill="black"/>
    <g clip-path="url(#clip0_1_1424)">
        <path d="M76.2906 11.3333C75.6862 11.3333 74.9353 11.7069 74.6554 11.9697L74.7654 12.2196C74.7654 12.2196 73.9133 12.231 73.4741 12.5137C73.0349 12.7964 72.8346 12.9887 72.6183 13.4453C72.4017 13.4556 71.5896 13.8004 71.1192 14.1469C71.1192 14.1469 70.7239 15.6435 71.4726 16.2893L71 16.9382C71.1192 17.3467 71.634 17.7618 72.1456 17.8114C72.3757 18.0903 71.9293 18.6445 71.9293 18.6445C72.1183 19.2444 73.3907 19.9038 74.1506 19.9038L74.046 20.257C74.046 20.257 74.8925 20.8734 76.2584 20.8158C77.4131 20.8533 78.3522 20.5775 78.5906 20.257L78.4699 19.9038C79.5245 19.7466 80.3211 19.4028 80.7644 18.6729C80.7644 18.6729 80.4343 17.979 80.5495 17.805C81.0611 17.7554 81.5395 17.2516 81.6667 17.0315L81.2026 16.3011C81.5727 15.8854 81.7799 14.7887 81.5078 14.1469C81.0375 13.8004 80.2333 13.5186 80.0167 13.5082C79.9308 13.0012 79.3791 12.6048 79.3791 12.6048C78.8566 12.1505 77.9063 12.2196 77.9063 12.2196L77.9836 11.9697C77.7413 11.6996 76.9764 11.3333 76.2906 11.3333Z"
              fill="white"/>
        <path d="M74.8812 12.7525C74.2765 12.5985 73.8206 12.8093 73.4261 13.0993C73.0309 13.3899 72.8749 13.7666 72.9096 13.9015C72.5864 13.7692 71.8767 14.1796 71.5389 14.3764C71.5389 14.3764 71.2775 15.6551 71.9458 16.1499C71.911 16.4972 71.666 16.9142 71.5389 16.9922C71.7592 17.3396 72.226 17.4347 72.4237 17.3464C72.7541 17.804 72.5944 18.4239 72.4109 18.6216C72.9244 19.0853 74.1497 19.2797 74.5086 19.3088C74.5086 19.3088 74.1927 18.5683 74.0517 17.9582C73.6618 16.2719 73.8716 14.1678 73.8716 14.1678C73.8716 14.1678 72.961 15.2279 73.4686 17.7836C73.5543 18.2151 73.6754 18.6712 73.6754 18.6712C73.591 18.6294 73.3849 18.6547 73.0059 18.463C73.1682 18.2882 73.0984 17.2512 72.6201 16.7424C72.6201 16.7424 72.3925 16.8474 72.2255 16.7778C72.3379 16.7088 72.4782 16.2681 72.4782 15.9309C71.9374 15.6076 71.9947 15.0232 72.0215 14.7159C72.2869 14.5436 72.7629 14.2507 73.3617 14.5064C73.346 14.3614 73.387 13.9753 73.5513 13.7049C73.5513 13.7049 73.7513 13.3569 74.2031 13.2477C74.6549 13.1386 74.8812 12.7525 74.8812 12.7525Z"
              fill="#333333"/>
        <path d="M77.7852 12.7525C78.39 12.5985 78.8459 12.8092 79.2403 13.0993C79.6356 13.3899 79.7915 13.7666 79.7569 13.9015C80.0801 13.7692 80.7897 14.1795 81.1275 14.3764C81.1275 14.3764 81.3889 15.6551 80.7207 16.1498C80.7554 16.4972 81.0004 16.9141 81.1275 16.9922C80.9072 17.3396 80.4405 17.4347 80.2428 17.3464C79.9123 17.8039 80.072 18.4239 80.2556 18.6215C79.742 19.0852 78.5167 19.2797 78.1578 19.3087C78.1578 19.3087 78.4737 18.5683 78.6148 17.9582C79.0046 16.2719 78.7948 14.1678 78.7948 14.1678C78.7948 14.1678 79.7054 15.2279 79.1978 17.7836C79.1121 18.2151 78.991 18.6712 78.991 18.6712C79.0755 18.6293 79.2816 18.6547 79.6606 18.463C79.4982 18.2882 79.568 17.2512 80.0463 16.7424C80.0463 16.7424 80.2739 16.8474 80.441 16.7778C80.3286 16.7088 80.1882 16.2681 80.1882 15.9309C80.7291 15.6076 80.6717 15.0232 80.6449 14.7159C80.3795 14.5436 79.9036 14.2507 79.3047 14.5064C79.3204 14.3614 79.2795 13.9753 79.1152 13.7049C79.1152 13.7049 78.9151 13.3569 78.4633 13.2477C78.0115 13.1386 77.7852 12.7525 77.7852 12.7525Z"
              fill="#333333"/>
        <path fill-rule="evenodd" clip-rule="evenodd"
              d="M76.3827 13.7376C75.9472 13.7361 75.3722 13.852 75.3722 13.852L75.1995 12.1322L76.3619 11.7809L77.4671 12.1322L77.3725 13.852C77.3725 13.852 76.8109 13.7392 76.3827 13.7376ZM76.3827 13.2474C76.1412 13.2411 75.8305 13.2846 75.8305 13.2846L75.7595 12.4698L76.3619 12.3064L76.9599 12.4698V13.2846C76.9599 13.2846 76.6291 13.2539 76.3827 13.2474Z"
              fill="#333333"/>
        <path fill-rule="evenodd" clip-rule="evenodd"
              d="M76.3272 20.273C77.3334 20.2612 77.9775 19.9615 77.9775 19.9615L77.5842 18.7257C77.5842 18.7257 76.7399 18.9704 76.3333 18.9707C75.9266 18.9704 75.0958 18.7257 75.0958 18.7257L74.689 19.9615C74.689 19.9615 75.3211 20.2612 76.3272 20.273ZM76.3333 19.8606C76.9062 19.8583 77.2601 19.7407 77.4522 19.6629L77.347 19.2393C77.1099 19.3172 76.6985 19.4032 76.3333 19.4062C75.968 19.4032 75.5541 19.339 75.3169 19.2611L75.2254 19.6629C75.4174 19.7407 75.7604 19.8583 76.3333 19.8606Z"
              fill="#333333"/>
        <path fill-rule="evenodd" clip-rule="evenodd"
              d="M78.3701 14.3936H74.2965C74.3281 14.4377 74.4565 14.6514 74.5024 14.7747C74.5485 14.8985 74.5824 15.0233 74.5839 15.1002C74.5852 15.1611 74.5926 15.3501 74.6023 15.5973L74.6024 15.5997C74.6216 16.0898 74.6499 16.8102 74.6578 17.2358C74.6613 17.4236 74.703 17.6725 74.8536 17.876C75.007 18.0832 75.266 18.2337 75.6824 18.2337H75.9752C76.0041 18.2337 76.024 18.2411 76.0398 18.2519C76.0566 18.2635 76.0722 18.2813 76.0877 18.3068C76.1035 18.3325 76.1199 18.3685 76.1352 18.4027C76.1491 18.4338 76.1646 18.4687 76.1829 18.5003C76.1892 18.5086 76.2144 18.5423 76.2379 18.5573C76.263 18.5734 76.2945 18.5828 76.3333 18.5828C76.373 18.5828 76.4048 18.573 76.4301 18.5574C76.4539 18.5428 76.4777 18.5085 76.4844 18.5003C76.5034 18.4676 76.5224 18.4317 76.5362 18.3998C76.5512 18.3654 76.566 18.3319 76.5813 18.3061C76.5965 18.2806 76.6115 18.263 76.6278 18.2517C76.643 18.2411 76.6625 18.2337 76.6914 18.2337H76.9843C77.4006 18.2337 77.6596 18.0832 77.813 17.876C77.9636 17.6725 78.0053 17.4236 78.0088 17.2358C78.0168 16.8102 78.045 16.0898 78.0642 15.5998L78.0643 15.5975C78.074 15.3503 78.0814 15.1611 78.0827 15.1002C78.0842 15.0233 78.1181 14.8985 78.1642 14.7747C78.2101 14.6514 78.3385 14.4377 78.3701 14.3936ZM75.0718 14.9705C75.067 14.9443 75.0617 14.9188 75.0563 14.8957H77.6218C77.6146 14.9212 77.6096 14.9468 77.6059 14.9709C77.5967 15.0305 77.5951 15.1263 77.5951 15.1263C77.5751 15.6276 77.5351 16.6716 77.5351 17.1909C77.5351 17.4051 77.4659 17.5436 77.3746 17.628C77.2821 17.7135 77.1601 17.7497 77.0441 17.746C77.0286 17.7455 76.9976 17.745 76.9646 17.7445C76.9204 17.7438 76.8726 17.743 76.8534 17.7421C76.7366 17.7367 76.6232 17.742 76.5246 17.7691C76.4531 17.7888 76.3874 17.8205 76.3342 17.8694C76.2098 17.7466 76.0092 17.6924 75.8039 17.7018C75.7847 17.7027 75.732 17.7035 75.683 17.7042C75.6453 17.7047 75.6098 17.7053 75.5937 17.7058C75.3756 17.7127 75.1548 17.5321 75.1548 17.1909C75.1548 16.6236 75.1179 15.6714 75.099 15.1828C75.099 15.1828 75.0854 15.0435 75.0718 14.9705Z"
              fill="#333333"/>
        <path d="M75.0506 14.8957C75.056 14.9188 75.0613 14.9443 75.0661 14.9705C75.0797 15.0435 75.0933 15.1828 75.0933 15.1828C75.1122 15.6714 75.149 16.6236 75.149 17.1909C75.149 17.5321 75.3699 17.7127 75.588 17.7058C75.6041 17.7053 75.6396 17.7048 75.6773 17.7042C75.7263 17.7035 75.779 17.7027 75.7982 17.7018C76.0035 17.6924 76.2041 17.7466 76.3285 17.8694C76.3817 17.8205 76.4474 17.7888 76.5189 17.7691C76.6175 17.742 76.7309 17.7368 76.8477 17.7421C76.8669 17.743 76.9147 17.7438 76.9589 17.7445C76.9919 17.745 77.0229 17.7456 77.0383 17.746C77.1544 17.7497 77.2764 17.7135 77.3689 17.628C77.4602 17.5437 77.5293 17.4051 77.5293 17.1909C77.5293 16.6716 77.5694 15.6276 77.5894 15.1263C77.5894 15.1263 77.591 15.0305 77.6002 14.9709C77.6038 14.9468 77.6089 14.9212 77.6161 14.8957H75.0506Z"
              fill="#FFDD2D"/>
    </g>
    <path d="M85.1667 18.38V13.62H83.6667V18.38H85.1667Z" fill="white"/>
    <path d="M88.7844 18.38C90.6844 18.38 91.6244 17.37 91.6244 16C91.6244 14.61 90.6844 13.62 88.9444 13.62H86.2644V18.38H88.7844ZM88.6344 14.76C89.6644 14.76 90.0944 15.22 90.0944 16C90.0944 16.72 89.6644 17.27 88.6344 17.27H87.7144V14.76H88.6344Z"
          fill="white"/>
    <defs>
        <clipPath id="clip0_1_1424">
            <rect width="10.6667" height="10.6667" fill="white" transform="translate(71 10.6667)"/>
        </clipPath>
    </defs>
</svg>
