<svg class="button-tinkoff button-tinkoff-black" width="280" height="60" viewBox="0 0 280 60" fill="none"
     xmlns="http://www.w3.org/2000/svg">
    <rect class="button-tinkoff-background" x="0.203613" width="279.593" height="60" rx="8"/>
    <path d="M33.9136 24.184V37H38.4316C41.1316 37 42.6976 35.614 42.6976 33.472C42.6976 31.906 41.8156 30.826 40.2856 30.466V30.43C41.6716 29.926 42.4096 28.882 42.4096 27.442C42.4096 25.498 41.0416 24.184 38.0896 24.184H33.9136ZM35.5696 25.588H38.0356C39.9616 25.588 40.7716 26.326 40.7716 27.676C40.7716 28.972 39.9796 29.782 37.9636 29.782H35.5696V25.588ZM35.5696 31.168H37.9636C40.1056 31.168 40.9876 31.996 40.9876 33.382C40.9876 34.822 40.0876 35.596 38.1976 35.596H35.5696V31.168ZM48.5648 27.604C45.8828 27.604 44.2268 29.44 44.2268 32.428C44.2268 35.416 45.8828 37.252 48.5648 37.252C51.2468 37.252 52.9208 35.416 52.9208 32.428C52.9208 29.44 51.2468 27.604 48.5648 27.604ZM48.5648 28.9C50.2388 28.9 51.2648 30.25 51.2648 32.428C51.2648 34.606 50.2388 35.956 48.5648 35.956C46.9088 35.956 45.8828 34.606 45.8828 32.428C45.8828 30.25 46.9088 28.9 48.5648 28.9ZM60.9025 24.184C60.7765 25.12 60.1825 25.642 59.2825 25.642C58.3645 25.642 57.7705 25.12 57.6625 24.184H56.4745C56.6005 25.804 57.6085 26.758 59.2825 26.758C60.9385 26.758 61.9465 25.804 62.0725 24.184H60.9025ZM63.4585 37V27.856H61.0465L58.7965 31.69C58.0405 32.968 57.3205 34.228 56.6725 35.488H56.6365C56.6725 34.12 56.6905 32.752 56.6905 31.384V27.856H55.0705V37H57.4825L59.7325 33.166C60.4705 31.888 61.1905 30.628 61.8565 29.368H61.8925C61.8565 30.736 61.8385 32.104 61.8385 33.472V37H63.4585ZM72.6273 29.116V27.874L64.7613 27.856V29.116H67.8933V37H69.5133V29.116H72.6273ZM82.3198 37V27.856H79.9078L77.6578 31.69C76.9018 32.968 76.1818 34.228 75.5338 35.488H75.4978C75.5338 34.12 75.5518 32.752 75.5518 31.384V27.856H73.9318V37H76.3438L78.5938 33.166C79.3318 31.888 80.0518 30.628 80.7178 29.368H80.7538C80.7178 30.736 80.6998 32.104 80.6998 33.472V37H82.3198ZM92.9135 27.604C90.2675 27.604 88.6115 29.458 88.6115 32.428C88.6115 35.398 90.2675 37.252 92.9135 37.252C95.1455 37.252 96.6395 35.722 96.8195 33.634H95.1635C95.0555 34.948 94.1555 35.956 92.8955 35.956C91.2755 35.956 90.2855 34.624 90.2855 32.428C90.2855 30.25 91.2755 28.9 92.8955 28.9C94.1555 28.9 95.0555 29.8 95.1635 31.096H96.8195C96.6395 29.044 95.1095 27.604 92.9135 27.604ZM112.239 25.66V24.184H101.817V25.66H106.191V37H107.865V25.66H112.239ZM121.009 37V27.856H118.597L116.347 31.69C115.591 32.968 114.871 34.228 114.223 35.488H114.187C114.223 34.12 114.241 32.752 114.241 31.384V27.856H112.621V37H115.033L117.283 33.166C118.021 31.888 118.741 30.628 119.407 29.368H119.443C119.407 30.736 119.389 32.104 119.389 33.472V37H121.009ZM131.613 37V27.856H130.029V31.78H125.403V27.856H123.819V37H125.403V33.04H130.029V37H131.613ZM136.002 31.24V27.856H134.418V37H138.234C140.502 37 141.744 35.938 141.744 34.12C141.744 32.32 140.502 31.24 138.234 31.24H136.002ZM136.002 32.464H138.144C139.476 32.464 140.142 33.004 140.142 34.12C140.142 35.236 139.476 35.776 138.144 35.776H136.002V32.464ZM151.246 37L146.656 31.996L150.76 27.856H148.798L145.108 31.654H145.072V27.856H143.488V37H145.072V32.428H145.108L149.158 37H151.246ZM155.985 27.604C153.303 27.604 151.647 29.44 151.647 32.428C151.647 35.416 153.303 37.252 155.985 37.252C158.667 37.252 160.341 35.416 160.341 32.428C160.341 29.44 158.667 27.604 155.985 27.604ZM155.985 28.9C157.659 28.9 158.685 30.25 158.685 32.428C158.685 34.606 157.659 35.956 155.985 35.956C154.329 35.956 153.303 34.606 153.303 32.428C153.303 30.25 154.329 28.9 155.985 28.9ZM169.128 24.184H167.544V28.342C167.022 27.874 166.374 27.622 165.672 27.622C163.44 27.622 162 29.494 162 32.41C162 35.326 163.44 37.216 165.69 37.216C166.392 37.216 167.022 36.982 167.544 36.532V40.33H169.128V36.532C169.668 36.982 170.298 37.216 171 37.216C173.25 37.216 174.69 35.326 174.69 32.41C174.69 29.494 173.25 27.622 171.018 27.622C170.316 27.622 169.668 27.874 169.128 28.342V24.184ZM166.068 28.9C166.644 28.9 167.148 29.134 167.544 29.566V35.29C167.148 35.704 166.644 35.938 166.068 35.938C164.61 35.938 163.656 34.552 163.656 32.41C163.656 30.268 164.61 28.9 166.068 28.9ZM170.604 28.9C172.08 28.9 173.034 30.268 173.034 32.41C173.034 34.552 172.08 35.938 170.604 35.938C170.028 35.938 169.542 35.704 169.128 35.29V29.566C169.542 29.134 170.028 28.9 170.604 28.9ZM183.472 24.184H181.888V28.342C181.366 27.874 180.718 27.622 180.016 27.622C177.784 27.622 176.344 29.494 176.344 32.41C176.344 35.326 177.784 37.216 180.034 37.216C180.736 37.216 181.366 36.982 181.888 36.532V40.33H183.472V36.532C184.012 36.982 184.642 37.216 185.344 37.216C187.594 37.216 189.034 35.326 189.034 32.41C189.034 29.494 187.594 27.622 185.362 27.622C184.66 27.622 184.012 27.874 183.472 28.342V24.184ZM180.412 28.9C180.988 28.9 181.492 29.134 181.888 29.566V35.29C181.492 35.704 180.988 35.938 180.412 35.938C178.954 35.938 178 34.552 178 32.41C178 30.268 178.954 28.9 180.412 28.9ZM184.948 28.9C186.424 28.9 187.378 30.268 187.378 32.41C187.378 34.552 186.424 35.938 184.948 35.938C184.372 35.938 183.886 35.704 183.472 35.29V29.566C183.886 29.134 184.372 28.9 184.948 28.9Z"
          fill="white"/>
    <rect x="198.037" y="15.5" width="50.9259" height="29" rx="14.5" fill="black"/>
    <g clip-path="url(#clip0_1_1747)">
        <path d="M213.462 21.8333C212.404 21.8333 211.09 22.4871 210.601 22.947L210.793 23.3844C210.793 23.3844 209.302 23.4043 208.533 23.8991C207.765 24.3938 207.414 24.7303 207.036 25.5294C206.657 25.5474 205.235 26.1507 204.412 26.7572C204.412 26.7572 203.72 29.3761 205.031 30.5062L204.204 31.6418C204.412 32.3568 205.313 33.0833 206.208 33.1699C206.611 33.6582 205.83 34.6279 205.83 34.6279C206.161 35.6778 208.387 36.8317 209.717 36.8317L209.534 37.4499C209.534 37.4499 211.015 38.5285 213.406 38.4277C215.427 38.4933 217.07 38.0107 217.487 37.4499L217.276 36.8317C219.122 36.5566 220.516 35.955 221.291 34.6776C221.291 34.6776 220.714 33.4633 220.915 33.1587C221.811 33.0721 222.648 32.1903 222.87 31.8053L222.058 30.527C222.706 29.7996 223.068 27.8802 222.592 26.7572C221.769 26.1507 220.362 25.6575 219.983 25.6395C219.833 24.7522 218.867 24.0585 218.867 24.0585C217.953 23.2634 216.29 23.3844 216.29 23.3844L216.425 22.947C216.001 22.4744 214.662 21.8333 213.462 21.8333Z"
              fill="white"/>
        <path d="M210.996 24.3169C209.937 24.0474 209.139 24.4163 208.449 24.9238C207.757 25.4324 207.485 26.0917 207.545 26.3277C206.98 26.0961 205.738 26.8143 205.147 27.1588C205.147 27.1588 204.689 29.3965 205.859 30.2623C205.798 30.8702 205.369 31.5998 205.147 31.7365C205.532 32.3444 206.349 32.5108 206.695 32.3564C207.273 33.157 206.994 34.2418 206.672 34.5878C207.571 35.3993 209.715 35.7396 210.344 35.7904C210.344 35.7904 209.791 34.4946 209.544 33.4269C208.862 30.4759 209.229 26.7937 209.229 26.7937C209.229 26.7937 207.635 28.6489 208.524 33.1213C208.674 33.8765 208.885 34.6747 208.885 34.6747C208.738 34.6014 208.377 34.6459 207.714 34.3104C207.998 34.0044 207.876 32.1896 207.039 31.2992C207.039 31.2992 206.64 31.483 206.348 31.3613C206.545 31.2404 206.79 30.4693 206.79 29.8792C205.844 29.3134 205.944 28.2907 205.991 27.753C206.456 27.4514 207.288 26.9388 208.336 27.3863C208.309 27.1325 208.381 26.4569 208.668 25.9837C208.668 25.9837 209.018 25.3747 209.809 25.1836C210.6 24.9926 210.996 24.3169 210.996 24.3169Z"
              fill="#333333"/>
        <path d="M216.078 24.3169C217.136 24.0474 217.934 24.4163 218.624 24.9238C219.316 25.4324 219.589 26.0917 219.528 26.3277C220.094 26.0961 221.336 26.8143 221.927 27.1588C221.927 27.1588 222.384 29.3965 221.215 30.2623C221.276 30.8702 221.704 31.5998 221.927 31.7365C221.541 32.3444 220.725 32.5108 220.379 32.3563C219.8 33.157 220.08 34.2418 220.401 34.5878C219.502 35.3993 217.358 35.7395 216.73 35.7904C216.73 35.7904 217.283 34.4946 217.53 33.4268C218.212 30.4759 217.845 26.7937 217.845 26.7937C217.845 26.7937 219.438 28.6489 218.55 33.1213C218.4 33.8765 218.188 34.6747 218.188 34.6747C218.336 34.6014 218.696 34.6459 219.36 34.3104C219.076 34.0044 219.198 32.1896 220.035 31.2992C220.035 31.2992 220.433 31.483 220.725 31.3613C220.529 31.2404 220.283 30.4693 220.283 29.8791C221.23 29.3134 221.129 28.2907 221.082 27.753C220.618 27.4514 219.785 26.9388 218.737 27.3863C218.764 27.1325 218.693 26.4569 218.405 25.9837C218.405 25.9837 218.055 25.3747 217.265 25.1836C216.474 24.9925 216.078 24.3169 216.078 24.3169Z"
              fill="#333333"/>
        <path fill-rule="evenodd" clip-rule="evenodd"
              d="M213.623 26.0409C212.861 26.0381 211.855 26.2409 211.855 26.2409L211.553 23.2313L213.587 22.6165L215.521 23.2313L215.355 26.2409C215.355 26.2409 214.373 26.0436 213.623 26.0409ZM213.623 25.1829C213.201 25.1718 212.657 25.248 212.657 25.248L212.533 23.8221L213.587 23.5362L214.633 23.8221V25.248C214.633 25.248 214.055 25.1943 213.623 25.1829Z"
              fill="#333333"/>
        <path fill-rule="evenodd" clip-rule="evenodd"
              d="M213.527 37.4777C215.287 37.4572 216.415 36.9326 216.415 36.9326L215.726 34.7699C215.726 34.7699 214.249 35.1981 213.537 35.1988C212.826 35.1981 211.372 34.7699 211.372 34.7699L210.66 36.9326C210.66 36.9326 211.766 37.4572 213.527 37.4777ZM213.537 36.7561C214.54 36.752 215.159 36.5463 215.495 36.41L215.311 35.6687C214.896 35.805 214.176 35.9555 213.537 35.9609C212.898 35.9555 212.174 35.8433 211.759 35.707L211.598 36.41C211.935 36.5463 212.535 36.752 213.537 36.7561Z"
              fill="#333333"/>
        <path fill-rule="evenodd" clip-rule="evenodd"
              d="M217.101 27.1889H209.973C210.028 27.2659 210.253 27.64 210.333 27.8558C210.414 28.0723 210.473 28.2907 210.476 28.4253C210.478 28.5319 210.491 28.8628 210.508 29.2952L210.508 29.2995C210.541 30.1571 210.591 31.4179 210.605 32.1627C210.611 32.4912 210.684 32.9268 210.948 33.283C211.216 33.6456 211.669 33.9089 212.398 33.9089H212.91C212.961 33.9089 212.996 33.9219 213.023 33.9409C213.053 33.9611 213.08 33.9923 213.107 34.0369C213.135 34.0819 213.164 34.1449 213.19 34.2047C213.215 34.2592 213.242 34.3202 213.274 34.3755C213.285 34.3901 213.329 34.449 213.37 34.4753C213.414 34.5034 213.469 34.5199 213.537 34.5199C213.606 34.5199 213.662 34.5027 213.706 34.4755C213.748 34.4498 213.79 34.3899 213.801 34.3755C213.835 34.3183 213.868 34.2554 213.892 34.1996C213.918 34.1395 213.944 34.0808 213.971 34.0357C213.998 33.9911 214.024 33.9603 214.052 33.9405C214.079 33.9219 214.113 33.9089 214.164 33.9089H214.676C215.405 33.9089 215.858 33.6456 216.126 33.283C216.39 32.9268 216.463 32.4912 216.469 32.1627C216.483 31.4179 216.532 30.1572 216.566 29.2996L216.566 29.2956C216.583 28.863 216.596 28.5319 216.598 28.4253C216.601 28.2907 216.66 28.0723 216.741 27.8558C216.821 27.64 217.046 27.2659 217.101 27.1889ZM211.329 28.1983C211.321 28.1525 211.312 28.1079 211.302 28.0674H215.792C215.779 28.1121 215.77 28.1569 215.764 28.199C215.748 28.3033 215.745 28.471 215.745 28.471C215.71 29.3483 215.64 31.1752 215.64 32.0841C215.64 32.459 215.519 32.7014 215.359 32.8491C215.197 32.9985 214.984 33.062 214.781 33.0556C214.754 33.0547 214.7 33.0538 214.642 33.0528C214.564 33.0516 214.481 33.0502 214.447 33.0486C214.243 33.0393 214.044 33.0485 213.872 33.0959C213.747 33.1303 213.632 33.1859 213.539 33.2714C213.321 33.0565 212.97 32.9618 212.611 32.9782C212.577 32.9797 212.485 32.9811 212.399 32.9823C212.333 32.9833 212.271 32.9842 212.243 32.9851C211.861 32.9972 211.475 32.6811 211.475 32.0841C211.475 31.0914 211.41 29.425 211.377 28.5698C211.377 28.5698 211.353 28.3261 211.329 28.1983Z"
              fill="#333333"/>
        <path d="M211.292 28.0674C211.302 28.1079 211.311 28.1525 211.319 28.1983C211.343 28.3261 211.367 28.5699 211.367 28.5699C211.4 29.425 211.464 31.0914 211.464 32.0841C211.464 32.6811 211.851 32.9972 212.233 32.9851C212.261 32.9842 212.323 32.9833 212.389 32.9823C212.475 32.9811 212.567 32.9797 212.6 32.9782C212.96 32.9618 213.311 33.0565 213.528 33.2714C213.621 33.1859 213.736 33.1303 213.862 33.0959C214.034 33.0485 214.233 33.0393 214.437 33.0487C214.471 33.0502 214.554 33.0516 214.632 33.0529C214.689 33.0538 214.744 33.0547 214.771 33.0556C214.974 33.062 215.187 32.9986 215.349 32.8491C215.509 32.7014 215.63 32.459 215.63 32.0841C215.63 31.1752 215.7 29.3483 215.735 28.471C215.735 28.471 215.738 28.3033 215.754 28.199C215.76 28.1569 215.769 28.1121 215.782 28.0674H211.292Z"
              fill="#FFDD2D"/>
    </g>
    <path d="M229.495 34.165V25.835H226.87V34.165H229.495Z" fill="white"/>
    <path d="M235.826 34.165C239.151 34.165 240.796 32.3975 240.796 30C240.796 27.5675 239.151 25.835 236.106 25.835H231.416V34.165H235.826ZM235.564 27.83C237.366 27.83 238.119 28.635 238.119 30C238.119 31.26 237.366 32.2225 235.564 32.2225H233.954V27.83H235.564Z"
          fill="white"/>
    <rect x="198.037" y="15.5" width="50.9259" height="29" rx="14.5" stroke="white" stroke-width="2.33333"/>
    <defs>
        <clipPath id="clip0_1_1747">
            <rect width="18.6667" height="18.6667" fill="white" transform="translate(204.204 20.6667)"/>
        </clipPath>
    </defs>
</svg>
