<svg class="button-tinkoff button-tinkoff-black" width="156" height="32" viewBox="0 0 156 32" fill="none"
     xmlns="http://www.w3.org/2000/svg">
    <rect class="button-tinkoff-background" width="156" height="32" rx="8"/>
    <path d="M18.95 12.88V20H21.46C22.96 20 23.83 19.23 23.83 18.04C23.83 17.17 23.34 16.57 22.49 16.37V16.35C23.26 16.07 23.67 15.49 23.67 14.69C23.67 13.61 22.91 12.88 21.27 12.88H18.95ZM19.87 13.66H21.24C22.31 13.66 22.76 14.07 22.76 14.82C22.76 15.54 22.32 15.99 21.2 15.99H19.87V13.66ZM19.87 16.76H21.2C22.39 16.76 22.88 17.22 22.88 17.99C22.88 18.79 22.38 19.22 21.33 19.22H19.87V16.76ZM27.0895 14.78C25.5995 14.78 24.6795 15.8 24.6795 17.46C24.6795 19.12 25.5995 20.14 27.0895 20.14C28.5795 20.14 29.5095 19.12 29.5095 17.46C29.5095 15.8 28.5795 14.78 27.0895 14.78ZM27.0895 15.5C28.0195 15.5 28.5895 16.25 28.5895 17.46C28.5895 18.67 28.0195 19.42 27.0895 19.42C26.1695 19.42 25.5995 18.67 25.5995 17.46C25.5995 16.25 26.1695 15.5 27.0895 15.5ZM33.9438 12.88C33.8738 13.4 33.5438 13.69 33.0438 13.69C32.5338 13.69 32.2038 13.4 32.1438 12.88H31.4838C31.5538 13.78 32.1138 14.31 33.0438 14.31C33.9638 14.31 34.5238 13.78 34.5938 12.88H33.9438ZM35.3638 20V14.92H34.0238L32.7738 17.05C32.3538 17.76 31.9538 18.46 31.5938 19.16H31.5738C31.5938 18.4 31.6038 17.64 31.6038 16.88V14.92H30.7038V20H32.0438L33.2938 17.87C33.7038 17.16 34.1038 16.46 34.4738 15.76H34.4938C34.4738 16.52 34.4638 17.28 34.4638 18.04V20H35.3638ZM40.4576 15.62V14.93L36.0876 14.92V15.62H37.8276V20H38.7276V15.62H40.4576ZM45.8423 20V14.92H44.5023L43.2523 17.05C42.8323 17.76 42.4323 18.46 42.0723 19.16H42.0523C42.0723 18.4 42.0823 17.64 42.0823 16.88V14.92H41.1823V20H42.5223L43.7723 17.87C44.1823 17.16 44.5823 16.46 44.9523 15.76H44.9723C44.9523 16.52 44.9423 17.28 44.9423 18.04V20H45.8423ZM51.7277 14.78C50.2577 14.78 49.3377 15.81 49.3377 17.46C49.3377 19.11 50.2577 20.14 51.7277 20.14C52.9677 20.14 53.7977 19.29 53.8977 18.13H52.9777C52.9177 18.86 52.4177 19.42 51.7177 19.42C50.8177 19.42 50.2677 18.68 50.2677 17.46C50.2677 16.25 50.8177 15.5 51.7177 15.5C52.4177 15.5 52.9177 16 52.9777 16.72H53.8977C53.7977 15.58 52.9477 14.78 51.7277 14.78ZM62.4642 13.7V12.88H56.6742V13.7H59.1042V20H60.0342V13.7H62.4642ZM67.3365 20V14.92H65.9965L64.7465 17.05C64.3265 17.76 63.9265 18.46 63.5665 19.16H63.5465C63.5665 18.4 63.5765 17.64 63.5765 16.88V14.92H62.6765V20H64.0165L65.2665 17.87C65.6765 17.16 66.0765 16.46 66.4465 15.76H66.4665C66.4465 16.52 66.4365 17.28 66.4365 18.04V20H67.3365ZM73.2272 20V14.92H72.3472V17.1H69.7772V14.92H68.8972V20H69.7772V17.8H72.3472V20H73.2272ZM75.6659 16.8V14.92H74.7859V20H76.9059C78.1659 20 78.8559 19.41 78.8559 18.4C78.8559 17.4 78.1659 16.8 76.9059 16.8H75.6659ZM75.6659 17.48H76.8559C77.5959 17.48 77.9659 17.78 77.9659 18.4C77.9659 19.02 77.5959 19.32 76.8559 19.32H75.6659V17.48ZM84.1349 20L81.5849 17.22L83.8649 14.92H82.7749L80.7249 17.03H80.7049V14.92H79.8249V20H80.7049V17.46H80.7249L82.9749 20H84.1349ZM86.7673 14.78C85.2773 14.78 84.3573 15.8 84.3573 17.46C84.3573 19.12 85.2773 20.14 86.7673 20.14C88.2573 20.14 89.1873 19.12 89.1873 17.46C89.1873 15.8 88.2573 14.78 86.7673 14.78ZM86.7673 15.5C87.6973 15.5 88.2673 16.25 88.2673 17.46C88.2673 18.67 87.6973 19.42 86.7673 19.42C85.8473 19.42 85.2773 18.67 85.2773 17.46C85.2773 16.25 85.8473 15.5 86.7673 15.5ZM94.0692 12.88H93.1892V15.19C92.8992 14.93 92.5392 14.79 92.1492 14.79C90.9092 14.79 90.1092 15.83 90.1092 17.45C90.1092 19.07 90.9092 20.12 92.1592 20.12C92.5492 20.12 92.8992 19.99 93.1892 19.74V21.85H94.0692V19.74C94.3692 19.99 94.7192 20.12 95.1092 20.12C96.3592 20.12 97.1592 19.07 97.1592 17.45C97.1592 15.83 96.3592 14.79 95.1192 14.79C94.7292 14.79 94.3692 14.93 94.0692 15.19V12.88ZM92.3692 15.5C92.6892 15.5 92.9692 15.63 93.1892 15.87V19.05C92.9692 19.28 92.6892 19.41 92.3692 19.41C91.5592 19.41 91.0292 18.64 91.0292 17.45C91.0292 16.26 91.5592 15.5 92.3692 15.5ZM94.8892 15.5C95.7092 15.5 96.2392 16.26 96.2392 17.45C96.2392 18.64 95.7092 19.41 94.8892 19.41C94.5692 19.41 94.2992 19.28 94.0692 19.05V15.87C94.2992 15.63 94.5692 15.5 94.8892 15.5ZM102.038 12.88H101.158V15.19C100.868 14.93 100.508 14.79 100.118 14.79C98.878 14.79 98.078 15.83 98.078 17.45C98.078 19.07 98.878 20.12 100.128 20.12C100.518 20.12 100.868 19.99 101.158 19.74V21.85H102.038V19.74C102.338 19.99 102.688 20.12 103.078 20.12C104.328 20.12 105.128 19.07 105.128 17.45C105.128 15.83 104.328 14.79 103.088 14.79C102.698 14.79 102.338 14.93 102.038 15.19V12.88ZM100.338 15.5C100.658 15.5 100.938 15.63 101.158 15.87V19.05C100.938 19.28 100.658 19.41 100.338 19.41C99.528 19.41 98.998 18.64 98.998 17.45C98.998 16.26 99.528 15.5 100.338 15.5ZM102.858 15.5C103.678 15.5 104.208 16.26 104.208 17.45C104.208 18.64 103.678 19.41 102.858 19.41C102.538 19.41 102.268 19.28 102.038 19.05V15.87C102.268 15.63 102.538 15.5 102.858 15.5Z"
          fill="white"/>
    <rect x="110.333" y="8.33333" width="28.3333" height="15.3333" rx="7.66667" fill="black"/>
    <g clip-path="url(#clip0_1_1519)">
        <path d="M119.291 11.3333C118.686 11.3333 117.935 11.7069 117.655 11.9697L117.765 12.2197C117.765 12.2197 116.913 12.231 116.474 12.5138C116.035 12.7965 115.835 12.9887 115.618 13.4454C115.402 13.4557 114.59 13.8004 114.119 14.147C114.119 14.147 113.724 15.6435 114.473 16.2893L114 16.9382C114.119 17.3467 114.634 17.7619 115.146 17.8114C115.376 18.0904 114.929 18.6445 114.929 18.6445C115.118 19.2444 116.391 19.9039 117.151 19.9039L117.046 20.2571C117.046 20.2571 117.892 20.8734 119.258 20.8158C120.413 20.8533 121.352 20.5776 121.591 20.2571L121.47 19.9039C122.525 19.7467 123.321 19.4028 123.764 18.6729C123.764 18.6729 123.434 17.9791 123.55 17.805C124.061 17.7555 124.539 17.2516 124.667 17.0316L124.203 16.3011C124.573 15.8855 124.78 14.7887 124.508 14.147C124.037 13.8004 123.233 13.5186 123.017 13.5083C122.931 13.0013 122.379 12.6049 122.379 12.6049C121.857 12.1505 120.906 12.2197 120.906 12.2197L120.984 11.9697C120.741 11.6996 119.976 11.3333 119.291 11.3333Z"
              fill="white"/>
        <path d="M117.881 12.7525C117.277 12.5985 116.821 12.8093 116.426 13.0993C116.031 13.3899 115.875 13.7667 115.91 13.9015C115.586 13.7692 114.877 14.1796 114.539 14.3765C114.539 14.3765 114.278 15.6551 114.946 16.1499C114.911 16.4973 114.666 16.9142 114.539 16.9923C114.759 17.3396 115.226 17.4347 115.424 17.3465C115.754 17.804 115.595 18.4239 115.411 18.6216C115.925 19.0853 117.15 19.2797 117.509 19.3088C117.509 19.3088 117.193 18.5683 117.052 17.9582C116.662 16.2719 116.872 14.1678 116.872 14.1678C116.872 14.1678 115.961 15.2279 116.469 17.7836C116.554 18.2151 116.676 18.6713 116.676 18.6713C116.591 18.6294 116.385 18.6548 116.006 18.4631C116.168 18.2882 116.099 17.2512 115.62 16.7424C115.62 16.7424 115.393 16.8474 115.226 16.7779C115.338 16.7088 115.478 16.2682 115.478 15.9309C114.937 15.6077 114.995 15.0233 115.022 14.716C115.287 14.5437 115.763 14.2507 116.362 14.5065C116.346 14.3614 116.387 13.9753 116.551 13.705C116.551 13.705 116.751 13.357 117.203 13.2478C117.655 13.1386 117.881 12.7525 117.881 12.7525Z"
              fill="#333333"/>
        <path d="M120.786 12.7525C121.39 12.5985 121.846 12.8093 122.241 13.0993C122.636 13.3899 122.792 13.7667 122.757 13.9015C123.08 13.7692 123.79 14.1796 124.128 14.3764C124.128 14.3764 124.389 15.6551 123.721 16.1499C123.756 16.4973 124.001 16.9142 124.128 16.9922C123.908 17.3396 123.441 17.4347 123.243 17.3465C122.913 17.804 123.072 18.4239 123.256 18.6216C122.742 19.0853 121.517 19.2797 121.158 19.3088C121.158 19.3088 121.474 18.5683 121.615 17.9582C122.005 16.2719 121.795 14.1678 121.795 14.1678C121.795 14.1678 122.706 15.2279 122.198 17.7836C122.112 18.2151 121.991 18.6712 121.991 18.6712C122.076 18.6294 122.282 18.6548 122.661 18.463C122.499 18.2882 122.568 17.2512 123.047 16.7424C123.047 16.7424 123.274 16.8474 123.441 16.7779C123.329 16.7088 123.189 16.2681 123.189 15.9309C123.729 15.6077 123.672 15.0233 123.645 14.716C123.38 14.5436 122.904 14.2507 122.305 14.5065C122.321 14.3614 122.28 13.9753 122.115 13.705C122.115 13.705 121.915 13.3569 121.464 13.2478C121.012 13.1386 120.786 12.7525 120.786 12.7525Z"
              fill="#333333"/>
        <path fill-rule="evenodd" clip-rule="evenodd"
              d="M119.383 13.7377C118.947 13.7361 118.372 13.852 118.372 13.852L118.199 12.1322L119.362 11.7809L120.467 12.1322L120.372 13.852C120.372 13.852 119.811 13.7392 119.383 13.7377ZM119.383 13.2474C119.141 13.2411 118.83 13.2846 118.83 13.2846L118.759 12.4698L119.362 12.3065L119.96 12.4698V13.2846C119.96 13.2846 119.629 13.2539 119.383 13.2474Z"
              fill="#333333"/>
        <path fill-rule="evenodd" clip-rule="evenodd"
              d="M119.327 20.273C120.333 20.2613 120.978 19.9615 120.978 19.9615L120.584 18.7257C120.584 18.7257 119.74 18.9704 119.333 18.9708C118.927 18.9704 118.096 18.7257 118.096 18.7257L117.689 19.9615C117.689 19.9615 118.321 20.2613 119.327 20.273ZM119.333 19.8606C119.906 19.8583 120.26 19.7408 120.452 19.6629L120.347 19.2393C120.11 19.3172 119.699 19.4032 119.333 19.4063C118.968 19.4032 118.554 19.3391 118.317 19.2612L118.225 19.6629C118.417 19.7408 118.76 19.8583 119.333 19.8606Z"
              fill="#333333"/>
        <path fill-rule="evenodd" clip-rule="evenodd"
              d="M121.37 14.3937H117.297C117.328 14.4377 117.457 14.6514 117.502 14.7748C117.548 14.8985 117.582 15.0233 117.584 15.1002C117.585 15.1611 117.593 15.3502 117.602 15.5973L117.602 15.5997C117.622 16.0898 117.65 16.8103 117.658 17.2359C117.661 17.4236 117.703 17.6725 117.854 17.876C118.007 18.0832 118.266 18.2337 118.682 18.2337H118.975C119.004 18.2337 119.024 18.2411 119.04 18.252C119.057 18.2635 119.072 18.2813 119.088 18.3068C119.104 18.3326 119.12 18.3685 119.135 18.4027C119.149 18.4339 119.165 18.4687 119.183 18.5003C119.189 18.5087 119.214 18.5423 119.238 18.5573C119.263 18.5734 119.294 18.5828 119.333 18.5828C119.373 18.5828 119.405 18.573 119.43 18.5574C119.454 18.5428 119.478 18.5085 119.484 18.5003C119.503 18.4676 119.522 18.4317 119.536 18.3998C119.551 18.3655 119.566 18.3319 119.581 18.3061C119.596 18.2807 119.612 18.2631 119.628 18.2517C119.643 18.2411 119.663 18.2337 119.691 18.2337H119.984C120.401 18.2337 120.66 18.0832 120.813 17.876C120.964 17.6725 121.005 17.4236 121.009 17.2359C121.017 16.8103 121.045 16.0899 121.064 15.5998L121.064 15.5975C121.074 15.3503 121.081 15.1611 121.083 15.1002C121.084 15.0233 121.118 14.8985 121.164 14.7748C121.21 14.6514 121.339 14.4377 121.37 14.3937ZM118.072 14.9705C118.067 14.9443 118.062 14.9188 118.056 14.8957H120.622C120.615 14.9212 120.61 14.9468 120.606 14.9709C120.597 15.0305 120.595 15.1263 120.595 15.1263C120.575 15.6276 120.535 16.6716 120.535 17.1909C120.535 17.4052 120.466 17.5437 120.375 17.6281C120.282 17.7135 120.16 17.7497 120.044 17.7461C120.029 17.7456 119.998 17.7451 119.965 17.7445C119.92 17.7438 119.873 17.743 119.853 17.7421C119.737 17.7368 119.623 17.742 119.525 17.7691C119.453 17.7888 119.387 17.8206 119.334 17.8694C119.21 17.7466 119.009 17.6925 118.804 17.7019C118.785 17.7027 118.732 17.7035 118.683 17.7042C118.645 17.7048 118.61 17.7053 118.594 17.7058C118.376 17.7127 118.155 17.5321 118.155 17.1909C118.155 16.6237 118.118 15.6714 118.099 15.1828C118.099 15.1828 118.085 15.0435 118.072 14.9705Z"
              fill="#333333"/>
        <path d="M118.05 14.8957C118.056 14.9188 118.061 14.9443 118.066 14.9705C118.079 15.0435 118.093 15.1828 118.093 15.1828C118.112 15.6715 118.149 16.6237 118.149 17.1909C118.149 17.5321 118.37 17.7127 118.588 17.7058C118.604 17.7053 118.639 17.7048 118.677 17.7042C118.726 17.7035 118.779 17.7027 118.798 17.7019C119.003 17.6925 119.204 17.7466 119.328 17.8694C119.381 17.8206 119.447 17.7888 119.519 17.7691C119.617 17.742 119.731 17.7368 119.847 17.7421C119.867 17.743 119.915 17.7438 119.959 17.7445C119.992 17.7451 120.023 17.7456 120.038 17.7461C120.154 17.7498 120.276 17.7135 120.369 17.6281C120.46 17.5437 120.529 17.4052 120.529 17.1909C120.529 16.6716 120.569 15.6276 120.589 15.1263C120.589 15.1263 120.591 15.0305 120.6 14.9709C120.604 14.9469 120.609 14.9212 120.616 14.8957H118.05Z"
              fill="#FFDD2D"/>
    </g>
    <path d="M128.167 18.38V13.62H126.667V18.38H128.167Z" fill="white"/>
    <path d="M131.784 18.38C133.684 18.38 134.624 17.37 134.624 16C134.624 14.61 133.684 13.62 131.944 13.62H129.264V18.38H131.784ZM131.634 14.76C132.664 14.76 133.094 15.22 133.094 16C133.094 16.72 132.664 17.27 131.634 17.27H130.714V14.76H131.634Z"
          fill="white"/>
    <rect x="110.333" y="8.33333" width="28.3333" height="15.3333" rx="7.66667" stroke="white" stroke-width="1.33333"/>
    <defs>
        <clipPath id="clip0_1_1519">
            <rect width="10.6667" height="10.6667" fill="white" transform="translate(114 10.6667)"/>
        </clipPath>
    </defs>
</svg>
