<svg class="button-tinkoff button-tinkoff-yellow" width="219" height="44" viewBox="0 0 219 44" fill="none"
     xmlns="http://www.w3.org/2000/svg">
    <rect class="button-tinkoff-background" width="219" height="44" rx="8"/>
    <path d="M27.33 18.032V28H30.844C32.944 28 34.162 26.922 34.162 25.256C34.162 24.038 33.476 23.198 32.286 22.918V22.89C33.364 22.498 33.938 21.686 33.938 20.566C33.938 19.054 32.874 18.032 30.578 18.032H27.33ZM28.618 19.124H30.536C32.034 19.124 32.664 19.698 32.664 20.748C32.664 21.756 32.048 22.386 30.48 22.386H28.618V19.124ZM28.618 23.464H30.48C32.146 23.464 32.832 24.108 32.832 25.186C32.832 26.306 32.132 26.908 30.662 26.908H28.618V23.464ZM38.7253 20.692C36.6393 20.692 35.3513 22.12 35.3513 24.444C35.3513 26.768 36.6393 28.196 38.7253 28.196C40.8113 28.196 42.1133 26.768 42.1133 24.444C42.1133 22.12 40.8113 20.692 38.7253 20.692ZM38.7253 21.7C40.0273 21.7 40.8253 22.75 40.8253 24.444C40.8253 26.138 40.0273 27.188 38.7253 27.188C37.4373 27.188 36.6393 26.138 36.6393 24.444C36.6393 22.75 37.4373 21.7 38.7253 21.7ZM48.3214 18.032C48.2234 18.76 47.7614 19.166 47.0614 19.166C46.3474 19.166 45.8854 18.76 45.8014 18.032H44.8774C44.9754 19.292 45.7594 20.034 47.0614 20.034C48.3494 20.034 49.1334 19.292 49.2314 18.032H48.3214ZM50.3094 28V20.888H48.4334L46.6834 23.87C46.0954 24.864 45.5354 25.844 45.0314 26.824H45.0034C45.0314 25.76 45.0454 24.696 45.0454 23.632V20.888H43.7854V28H45.6614L47.4114 25.018C47.9854 24.024 48.5454 23.044 49.0634 22.064H49.0914C49.0634 23.128 49.0494 24.192 49.0494 25.256V28H50.3094ZM57.4406 21.868V20.902L51.3226 20.888V21.868H53.7586V28H55.0186V21.868H57.4406ZM64.9793 28V20.888H63.1033L61.3533 23.87C60.7653 24.864 60.2053 25.844 59.7013 26.824H59.6733C59.7013 25.76 59.7153 24.696 59.7153 23.632V20.888H58.4553V28H60.3313L62.0813 25.018C62.6553 24.024 63.2153 23.044 63.7333 22.064H63.7613C63.7333 23.128 63.7193 24.192 63.7193 25.256V28H64.9793ZM73.2188 20.692C71.1608 20.692 69.8728 22.134 69.8728 24.444C69.8728 26.754 71.1608 28.196 73.2188 28.196C74.9548 28.196 76.1168 27.006 76.2568 25.382H74.9688C74.8848 26.404 74.1848 27.188 73.2048 27.188C71.9448 27.188 71.1748 26.152 71.1748 24.444C71.1748 22.75 71.9448 21.7 73.2048 21.7C74.1848 21.7 74.8848 22.4 74.9688 23.408H76.2568C76.1168 21.812 74.9268 20.692 73.2188 20.692ZM88.2499 19.18V18.032H80.1439V19.18H83.5459V28H84.8479V19.18H88.2499ZM95.0711 28V20.888H93.1951L91.4451 23.87C90.8571 24.864 90.2971 25.844 89.7931 26.824H89.7651C89.7931 25.76 89.8071 24.696 89.8071 23.632V20.888H88.5471V28H90.4231L92.1731 25.018C92.7471 24.024 93.3071 23.044 93.8251 22.064H93.8531C93.8251 23.128 93.8111 24.192 93.8111 25.256V28H95.0711ZM103.318 28V20.888H102.086V23.94H98.4881V20.888H97.2561V28H98.4881V24.92H102.086V28H103.318ZM106.732 23.52V20.888H105.5V28H108.468C110.232 28 111.198 27.174 111.198 25.76C111.198 24.36 110.232 23.52 108.468 23.52H106.732ZM106.732 24.472H108.398C109.434 24.472 109.952 24.892 109.952 25.76C109.952 26.628 109.434 27.048 108.398 27.048H106.732V24.472ZM118.589 28L115.019 24.108L118.211 20.888H116.685L113.815 23.842H113.787V20.888H112.555V28H113.787V24.444H113.815L116.965 28H118.589ZM122.274 20.692C120.188 20.692 118.9 22.12 118.9 24.444C118.9 26.768 120.188 28.196 122.274 28.196C124.36 28.196 125.662 26.768 125.662 24.444C125.662 22.12 124.36 20.692 122.274 20.692ZM122.274 21.7C123.576 21.7 124.374 22.75 124.374 24.444C124.374 26.138 123.576 27.188 122.274 27.188C120.986 27.188 120.188 26.138 120.188 24.444C120.188 22.75 120.986 21.7 122.274 21.7ZM132.497 18.032H131.265V21.266C130.859 20.902 130.355 20.706 129.809 20.706C128.073 20.706 126.953 22.162 126.953 24.43C126.953 26.698 128.073 28.168 129.823 28.168C130.369 28.168 130.859 27.986 131.265 27.636V30.59H132.497V27.636C132.917 27.986 133.407 28.168 133.953 28.168C135.703 28.168 136.823 26.698 136.823 24.43C136.823 22.162 135.703 20.706 133.967 20.706C133.421 20.706 132.917 20.902 132.497 21.266V18.032ZM130.117 21.7C130.565 21.7 130.957 21.882 131.265 22.218V26.67C130.957 26.992 130.565 27.174 130.117 27.174C128.983 27.174 128.241 26.096 128.241 24.43C128.241 22.764 128.983 21.7 130.117 21.7ZM133.645 21.7C134.793 21.7 135.535 22.764 135.535 24.43C135.535 26.096 134.793 27.174 133.645 27.174C133.197 27.174 132.819 26.992 132.497 26.67V22.218C132.819 21.882 133.197 21.7 133.645 21.7ZM143.653 18.032H142.421V21.266C142.015 20.902 141.511 20.706 140.965 20.706C139.229 20.706 138.109 22.162 138.109 24.43C138.109 26.698 139.229 28.168 140.979 28.168C141.525 28.168 142.015 27.986 142.421 27.636V30.59H143.653V27.636C144.073 27.986 144.563 28.168 145.109 28.168C146.859 28.168 147.979 26.698 147.979 24.43C147.979 22.162 146.859 20.706 145.123 20.706C144.577 20.706 144.073 20.902 143.653 21.266V18.032ZM141.273 21.7C141.721 21.7 142.113 21.882 142.421 22.218V26.67C142.113 26.992 141.721 27.174 141.273 27.174C140.139 27.174 139.397 26.096 139.397 24.43C139.397 22.764 140.139 21.7 141.273 21.7ZM144.801 21.7C145.949 21.7 146.691 22.764 146.691 24.43C146.691 26.096 145.949 27.174 144.801 27.174C144.353 27.174 143.975 26.992 143.653 26.67V22.218C143.975 21.882 144.353 21.7 144.801 21.7Z"
          fill="black" fill-opacity="0.8"/>
    <rect x="156" y="12" width="37" height="20" rx="10" fill="black"/>
    <g clip-path="url(#clip0_1_1595)">
        <path d="M167.275 15.5834C166.444 15.5834 165.411 16.097 165.026 16.4584L165.177 16.8021C165.177 16.8021 164.006 16.8177 163.402 17.2064C162.798 17.5952 162.523 17.8595 162.225 18.4874C161.927 18.5016 160.811 18.9756 160.164 19.4521C160.164 19.4521 159.62 21.5098 160.65 22.3978L160 23.29C160.164 23.8518 160.872 24.4226 161.575 24.4907C161.892 24.8743 161.278 25.6363 161.278 25.6363C161.538 26.4611 163.287 27.3678 164.332 27.3678L164.188 27.8535C164.188 27.8535 165.352 28.701 167.23 28.6218C168.818 28.6734 170.109 28.2942 170.437 27.8535L170.271 27.3678C171.721 27.1517 172.817 26.6789 173.426 25.6753C173.426 25.6753 172.972 24.7212 173.131 24.4819C173.834 24.4138 174.492 23.721 174.667 23.4184L174.029 22.4141C174.537 21.8426 174.822 20.3345 174.448 19.4521C173.802 18.9756 172.696 18.5881 172.398 18.5739C172.28 17.8768 171.521 17.3317 171.521 17.3317C170.803 16.707 169.496 16.8021 169.496 16.8021L169.602 16.4584C169.269 16.087 168.218 15.5834 167.275 15.5834Z"
              fill="white"/>
        <path d="M165.337 17.5347C164.505 17.323 163.878 17.6128 163.336 18.0116C162.793 18.4112 162.578 18.9292 162.626 19.1147C162.181 18.9327 161.206 19.497 160.741 19.7677C160.741 19.7677 160.382 21.5258 161.301 22.2061C161.253 22.6838 160.916 23.257 160.741 23.3644C161.044 23.842 161.686 23.9728 161.958 23.8514C162.412 24.4805 162.192 25.3329 161.94 25.6047C162.646 26.2423 164.331 26.5097 164.825 26.5496C164.825 26.5496 164.39 25.5315 164.196 24.6926C163.66 22.374 163.949 19.4808 163.949 19.4808C163.949 19.4808 162.697 20.9384 163.394 24.4525C163.512 25.0458 163.679 25.673 163.679 25.673C163.563 25.6154 163.279 25.6504 162.758 25.3867C162.981 25.1463 162.885 23.7205 162.228 23.0208C162.228 23.0208 161.915 23.1652 161.685 23.0696C161.84 22.9747 162.033 22.3687 162.033 21.9051C161.289 21.4606 161.368 20.657 161.405 20.2345C161.77 19.9976 162.424 19.5948 163.248 19.9464C163.226 19.747 163.282 19.2161 163.508 18.8444C163.508 18.8444 163.783 18.3658 164.404 18.2157C165.026 18.0656 165.337 17.5347 165.337 17.5347Z"
              fill="#333333"/>
        <path d="M169.33 17.5347C170.161 17.3229 170.788 17.6128 171.331 18.0116C171.874 18.4112 172.089 18.9292 172.041 19.1146C172.485 18.9327 173.461 19.497 173.926 19.7677C173.926 19.7677 174.285 21.5258 173.366 22.2061C173.414 22.6838 173.751 23.257 173.926 23.3644C173.623 23.842 172.981 23.9728 172.709 23.8514C172.255 24.4805 172.474 25.3329 172.727 25.6047C172.02 26.2423 170.336 26.5097 169.842 26.5496C169.842 26.5496 170.277 25.5315 170.471 24.6925C171.007 22.3739 170.718 19.4808 170.718 19.4808C170.718 19.4808 171.97 20.9384 171.272 24.4525C171.154 25.0458 170.988 25.673 170.988 25.673C171.104 25.6154 171.387 25.6503 171.908 25.3867C171.685 25.1463 171.781 23.7204 172.439 23.0208C172.439 23.0208 172.752 23.1652 172.982 23.0696C172.827 22.9746 172.634 22.3687 172.634 21.9051C173.378 21.4606 173.299 20.657 173.262 20.2345C172.897 19.9975 172.243 19.5948 171.419 19.9464C171.441 19.747 171.384 19.2161 171.159 18.8444C171.159 18.8444 170.883 18.3658 170.262 18.2157C169.641 18.0656 169.33 17.5347 169.33 17.5347Z"
              fill="#333333"/>
        <path fill-rule="evenodd" clip-rule="evenodd"
              d="M167.401 18.8893C166.803 18.8871 166.012 19.0465 166.012 19.0465L165.774 16.6818L167.373 16.1987L168.892 16.6818L168.762 19.0465C168.762 19.0465 167.99 18.8914 167.401 18.8893ZM167.401 18.2152C167.069 18.2065 166.642 18.2664 166.642 18.2664L166.544 17.146L167.373 16.9214L168.195 17.146V18.2664C168.195 18.2664 167.74 18.2241 167.401 18.2152Z"
              fill="#333333"/>
        <path fill-rule="evenodd" clip-rule="evenodd"
              d="M167.325 27.8754C168.709 27.8592 169.594 27.4471 169.594 27.4471L169.053 25.7478C169.053 25.7478 167.893 26.0843 167.333 26.0848C166.774 26.0843 165.632 25.7479 165.632 25.7479L165.072 27.4471C165.072 27.4471 165.942 27.8592 167.325 27.8754ZM167.333 27.3084C168.121 27.3052 168.608 27.1435 168.872 27.0365L168.727 26.454C168.401 26.5611 167.836 26.6794 167.333 26.6836C166.831 26.6794 166.262 26.5912 165.936 26.4841L165.81 27.0365C166.074 27.1435 166.546 27.3052 167.333 27.3084Z"
              fill="#333333"/>
        <path fill-rule="evenodd" clip-rule="evenodd"
              d="M170.134 19.7913H164.533C164.576 19.8518 164.753 20.1457 164.816 20.3153C164.879 20.4854 164.926 20.657 164.928 20.7628C164.93 20.8465 164.94 21.1065 164.953 21.4463L164.953 21.4496C164.98 22.1235 165.019 23.1141 165.029 23.6993C165.034 23.9574 165.092 24.2997 165.299 24.5795C165.51 24.8645 165.866 25.0713 166.438 25.0713H166.841C166.881 25.0713 166.908 25.0816 166.93 25.0965C166.953 25.1123 166.974 25.1368 166.996 25.1718C167.017 25.2073 167.04 25.2567 167.061 25.3037C167.08 25.3466 167.101 25.3945 167.127 25.4379C167.135 25.4494 167.17 25.4957 167.202 25.5163C167.237 25.5384 167.28 25.5514 167.333 25.5514C167.388 25.5514 167.432 25.5379 167.466 25.5165C167.499 25.4963 167.532 25.4493 167.541 25.4379C167.567 25.393 167.593 25.3436 167.612 25.2997C167.633 25.2525 167.653 25.2063 167.674 25.1709C167.695 25.1359 167.716 25.1117 167.738 25.0961C167.759 25.0815 167.786 25.0713 167.826 25.0713H168.228C168.801 25.0713 169.157 24.8645 169.368 24.5795C169.575 24.2997 169.632 23.9574 169.637 23.6993C169.648 23.1141 169.687 22.1236 169.713 21.4497L169.713 21.4466C169.727 21.1067 169.737 20.8465 169.739 20.7628C169.741 20.657 169.787 20.4854 169.851 20.3153C169.914 20.1457 170.09 19.8518 170.134 19.7913ZM165.599 20.5844C165.592 20.5484 165.585 20.5133 165.577 20.4816H169.105C169.095 20.5167 169.088 20.5519 169.083 20.585C169.07 20.6669 169.068 20.7987 169.068 20.7987C169.041 21.488 168.986 22.9234 168.986 23.6375C168.986 23.9321 168.891 24.1225 168.765 24.2386C168.638 24.356 168.47 24.4059 168.311 24.4008C168.289 24.4002 168.247 24.3995 168.201 24.3987C168.141 24.3977 168.075 24.3966 168.048 24.3954C167.888 24.3881 167.732 24.3953 167.596 24.4325C167.498 24.4596 167.408 24.5033 167.335 24.5704C167.164 24.4016 166.888 24.3271 166.605 24.34C166.579 24.3412 166.506 24.3423 166.439 24.3433C166.387 24.3441 166.338 24.3448 166.316 24.3455C166.016 24.355 165.713 24.1066 165.713 23.6375C165.713 22.8575 165.662 21.5482 165.636 20.8763C165.636 20.8763 165.617 20.6849 165.599 20.5844Z"
              fill="#333333"/>
        <path d="M165.569 20.4816C165.577 20.5134 165.584 20.5484 165.591 20.5844C165.61 20.6849 165.628 20.8763 165.628 20.8763C165.654 21.5482 165.705 22.8575 165.705 23.6375C165.705 24.1066 166.009 24.355 166.309 24.3455C166.331 24.3448 166.379 24.3441 166.431 24.3433C166.499 24.3423 166.571 24.3412 166.597 24.34C166.88 24.3271 167.156 24.4016 167.327 24.5704C167.4 24.5033 167.49 24.4596 167.588 24.4325C167.724 24.3953 167.88 24.3881 168.04 24.3954C168.067 24.3966 168.133 24.3977 168.193 24.3987C168.239 24.3995 168.281 24.4002 168.303 24.4008C168.462 24.4059 168.63 24.356 168.757 24.2386C168.883 24.1225 168.978 23.9321 168.978 23.6375C168.978 22.9234 169.033 21.488 169.06 20.7987C169.06 20.7987 169.063 20.6669 169.075 20.585C169.08 20.5519 169.087 20.5167 169.097 20.4816H165.569Z"
              fill="#FFDD2D"/>
    </g>
    <path d="M179.729 25.2725V18.7275H177.667V25.2725H179.729Z" fill="white"/>
    <path d="M184.704 25.2725C187.316 25.2725 188.609 23.8837 188.609 22C188.609 20.0887 187.316 18.7275 184.924 18.7275H181.239V25.2725H184.704ZM184.497 20.295C185.914 20.295 186.505 20.9275 186.505 22C186.505 22.99 185.914 23.7462 184.497 23.7462H183.232V20.295H184.497Z"
          fill="white"/>
    <defs>
        <clipPath id="clip0_1_1595">
            <rect width="14.6667" height="14.6667" fill="white" transform="translate(160 14.6667)"/>
        </clipPath>
    </defs>
</svg>
