<svg class="button-tinkoff button-tinkoff-yellow" width="278" height="60" viewBox="0 0 278 60" fill="none"
     xmlns="http://www.w3.org/2000/svg">
    <rect class="button-tinkoff-background" width="278" height="60" rx="8"/>
    <path d="M33.71 24.184V37H38.228C40.928 37 42.494 35.614 42.494 33.472C42.494 31.906 41.612 30.826 40.082 30.466V30.43C41.468 29.926 42.206 28.882 42.206 27.442C42.206 25.498 40.838 24.184 37.886 24.184H33.71ZM35.366 25.588H37.832C39.758 25.588 40.568 26.326 40.568 27.676C40.568 28.972 39.776 29.782 37.76 29.782H35.366V25.588ZM35.366 31.168H37.76C39.902 31.168 40.784 31.996 40.784 33.382C40.784 34.822 39.884 35.596 37.994 35.596H35.366V31.168ZM48.3612 27.604C45.6792 27.604 44.0232 29.44 44.0232 32.428C44.0232 35.416 45.6792 37.252 48.3612 37.252C51.0432 37.252 52.7172 35.416 52.7172 32.428C52.7172 29.44 51.0432 27.604 48.3612 27.604ZM48.3612 28.9C50.0352 28.9 51.0612 30.25 51.0612 32.428C51.0612 34.606 50.0352 35.956 48.3612 35.956C46.7052 35.956 45.6792 34.606 45.6792 32.428C45.6792 30.25 46.7052 28.9 48.3612 28.9ZM60.6989 24.184C60.5729 25.12 59.9789 25.642 59.0789 25.642C58.1609 25.642 57.5669 25.12 57.4589 24.184H56.2709C56.3969 25.804 57.4049 26.758 59.0789 26.758C60.7349 26.758 61.7429 25.804 61.8689 24.184H60.6989ZM63.2549 37V27.856H60.8429L58.5929 31.69C57.8369 32.968 57.1169 34.228 56.4689 35.488H56.4329C56.4689 34.12 56.4869 32.752 56.4869 31.384V27.856H54.8669V37H57.2789L59.5289 33.166C60.2669 31.888 60.9869 30.628 61.6529 29.368H61.6889C61.6529 30.736 61.6349 32.104 61.6349 33.472V37H63.2549ZM72.4236 29.116V27.874L64.5576 27.856V29.116H67.6896V37H69.3096V29.116H72.4236ZM82.1162 37V27.856H79.7042L77.4542 31.69C76.6982 32.968 75.9782 34.228 75.3302 35.488H75.2942C75.3302 34.12 75.3482 32.752 75.3482 31.384V27.856H73.7282V37H76.1402L78.3902 33.166C79.1282 31.888 79.8482 30.628 80.5142 29.368H80.5502C80.5142 30.736 80.4962 32.104 80.4962 33.472V37H82.1162ZM92.7099 27.604C90.0639 27.604 88.4079 29.458 88.4079 32.428C88.4079 35.398 90.0639 37.252 92.7099 37.252C94.9419 37.252 96.4359 35.722 96.6159 33.634H94.9599C94.8519 34.948 93.9519 35.956 92.6919 35.956C91.0719 35.956 90.0819 34.624 90.0819 32.428C90.0819 30.25 91.0719 28.9 92.6919 28.9C93.9519 28.9 94.8519 29.8 94.9599 31.096H96.6159C96.4359 29.044 94.9059 27.604 92.7099 27.604ZM112.036 25.66V24.184H101.614V25.66H105.988V37H107.662V25.66H112.036ZM120.806 37V27.856H118.394L116.144 31.69C115.388 32.968 114.668 34.228 114.02 35.488H113.984C114.02 34.12 114.038 32.752 114.038 31.384V27.856H112.418V37H114.83L117.08 33.166C117.818 31.888 118.538 30.628 119.204 29.368H119.24C119.204 30.736 119.186 32.104 119.186 33.472V37H120.806ZM131.409 37V27.856H129.825V31.78H125.199V27.856H123.615V37H125.199V33.04H129.825V37H131.409ZM135.799 31.24V27.856H134.215V37H138.031C140.299 37 141.541 35.938 141.541 34.12C141.541 32.32 140.299 31.24 138.031 31.24H135.799ZM135.799 32.464H137.941C139.273 32.464 139.939 33.004 139.939 34.12C139.939 35.236 139.273 35.776 137.941 35.776H135.799V32.464ZM151.043 37L146.453 31.996L150.557 27.856H148.595L144.905 31.654H144.869V27.856H143.285V37H144.869V32.428H144.905L148.955 37H151.043ZM155.781 27.604C153.099 27.604 151.443 29.44 151.443 32.428C151.443 35.416 153.099 37.252 155.781 37.252C158.463 37.252 160.137 35.416 160.137 32.428C160.137 29.44 158.463 27.604 155.781 27.604ZM155.781 28.9C157.455 28.9 158.481 30.25 158.481 32.428C158.481 34.606 157.455 35.956 155.781 35.956C154.125 35.956 153.099 34.606 153.099 32.428C153.099 30.25 154.125 28.9 155.781 28.9ZM168.925 24.184H167.341V28.342C166.819 27.874 166.171 27.622 165.469 27.622C163.237 27.622 161.797 29.494 161.797 32.41C161.797 35.326 163.237 37.216 165.487 37.216C166.189 37.216 166.819 36.982 167.341 36.532V40.33H168.925V36.532C169.465 36.982 170.095 37.216 170.797 37.216C173.047 37.216 174.487 35.326 174.487 32.41C174.487 29.494 173.047 27.622 170.815 27.622C170.113 27.622 169.465 27.874 168.925 28.342V24.184ZM165.865 28.9C166.441 28.9 166.945 29.134 167.341 29.566V35.29C166.945 35.704 166.441 35.938 165.865 35.938C164.407 35.938 163.453 34.552 163.453 32.41C163.453 30.268 164.407 28.9 165.865 28.9ZM170.401 28.9C171.877 28.9 172.831 30.268 172.831 32.41C172.831 34.552 171.877 35.938 170.401 35.938C169.825 35.938 169.339 35.704 168.925 35.29V29.566C169.339 29.134 169.825 28.9 170.401 28.9ZM183.268 24.184H181.684V28.342C181.162 27.874 180.514 27.622 179.812 27.622C177.58 27.622 176.14 29.494 176.14 32.41C176.14 35.326 177.58 37.216 179.83 37.216C180.532 37.216 181.162 36.982 181.684 36.532V40.33H183.268V36.532C183.808 36.982 184.438 37.216 185.14 37.216C187.39 37.216 188.83 35.326 188.83 32.41C188.83 29.494 187.39 27.622 185.158 27.622C184.456 27.622 183.808 27.874 183.268 28.342V24.184ZM180.208 28.9C180.784 28.9 181.288 29.134 181.684 29.566V35.29C181.288 35.704 180.784 35.938 180.208 35.938C178.75 35.938 177.796 34.552 177.796 32.41C177.796 30.268 178.75 28.9 180.208 28.9ZM184.744 28.9C186.22 28.9 187.174 30.268 187.174 32.41C187.174 34.552 186.22 35.938 184.744 35.938C184.168 35.938 183.682 35.704 183.268 35.29V29.566C183.682 29.134 184.168 28.9 184.744 28.9Z"
          fill="black" fill-opacity="0.8"/>
    <rect x="199" y="17.5" width="47" height="25" rx="12.5" fill="black"/>
    <g clip-path="url(#clip0_1_1709)">
        <path d="M213.259 21.8334C212.201 21.8334 210.887 22.4871 210.397 22.947L210.59 23.3845C210.59 23.3845 209.098 23.4044 208.33 23.8991C207.561 24.3938 207.211 24.7303 206.832 25.5294C206.453 25.5475 205.032 26.1507 204.209 26.7572C204.209 26.7572 203.517 29.3761 204.827 30.5063L204 31.6418C204.209 32.3568 205.109 33.0833 206.005 33.17C206.408 33.6582 205.626 34.628 205.626 34.628C205.957 35.6778 208.184 36.8318 209.514 36.8318L209.331 37.4499C209.331 37.4499 210.812 38.5285 213.202 38.4277C215.223 38.4934 216.866 38.0108 217.283 37.4499L217.072 36.8318C218.918 36.5567 220.312 35.955 221.088 34.6776C221.088 34.6776 220.51 33.4634 220.712 33.1587C221.607 33.0721 222.444 32.1903 222.667 31.8053L221.855 30.527C222.502 29.7996 222.865 27.8802 222.389 26.7572C221.566 26.1507 220.158 25.6576 219.779 25.6395C219.629 24.7522 218.663 24.0586 218.663 24.0586C217.749 23.2634 216.086 23.3845 216.086 23.3845L216.221 22.947C215.797 22.4744 214.459 21.8334 213.259 21.8334Z"
              fill="white"/>
        <path d="M210.792 24.3169C209.734 24.0474 208.936 24.4163 208.246 24.9238C207.554 25.4324 207.281 26.0917 207.342 26.3277C206.776 26.0962 205.534 26.8143 204.943 27.1589C204.943 27.1589 204.486 29.3965 205.655 30.2624C205.595 30.8703 205.166 31.5999 204.943 31.7365C205.329 32.3444 206.146 32.5108 206.492 32.3564C207.07 33.157 206.79 34.2419 206.469 34.5878C207.368 35.3993 209.512 35.7396 210.14 35.7904C210.14 35.7904 209.587 34.4946 209.341 33.4269C208.658 30.4759 209.026 26.7938 209.026 26.7938C209.026 26.7938 207.432 28.6489 208.32 33.1213C208.47 33.8765 208.682 34.6747 208.682 34.6747C208.534 34.6015 208.174 34.6459 207.51 34.3104C207.795 34.0044 207.672 32.1897 206.835 31.2992C206.835 31.2992 206.437 31.483 206.145 31.3613C206.341 31.2405 206.587 30.4693 206.587 29.8792C205.641 29.3135 205.741 28.2908 205.788 27.753C206.252 27.4514 207.085 26.9388 208.133 27.3864C208.106 27.1325 208.177 26.4569 208.465 25.9838C208.465 25.9838 208.815 25.3747 209.606 25.1837C210.396 24.9926 210.792 24.3169 210.792 24.3169Z"
              fill="#333333"/>
        <path d="M215.874 24.3169C216.933 24.0474 217.731 24.4163 218.421 24.9238C219.113 25.4324 219.385 26.0917 219.325 26.3277C219.89 26.0962 221.132 26.8143 221.723 27.1588C221.723 27.1588 222.181 29.3965 221.011 30.2623C221.072 30.8703 221.501 31.5999 221.723 31.7365C221.338 32.3444 220.521 32.5108 220.175 32.3564C219.597 33.157 219.876 34.2419 220.198 34.5878C219.299 35.3993 217.155 35.7396 216.526 35.7904C216.526 35.7904 217.079 34.4946 217.326 33.4269C218.008 30.4759 217.641 26.7938 217.641 26.7938C217.641 26.7938 219.235 28.6489 218.347 33.1213C218.197 33.8765 217.985 34.6747 217.985 34.6747C218.132 34.6015 218.493 34.6459 219.156 34.3104C218.872 34.0044 218.994 32.1897 219.831 31.2992C219.831 31.2992 220.23 31.483 220.522 31.3613C220.325 31.2405 220.08 30.4693 220.08 29.8792C221.026 29.3135 220.926 28.2908 220.879 27.753C220.415 27.4514 219.582 26.9388 218.534 27.3864C218.561 27.1325 218.489 26.4569 218.202 25.9838C218.202 25.9838 217.852 25.3747 217.061 25.1836C216.27 24.9926 215.874 24.3169 215.874 24.3169Z"
              fill="#333333"/>
        <path fill-rule="evenodd" clip-rule="evenodd"
              d="M213.42 26.0409C212.658 26.0381 211.652 26.241 211.652 26.241L211.349 23.2314L213.384 22.6165L215.318 23.2314L215.152 26.241C215.152 26.241 214.169 26.0436 213.42 26.0409ZM213.42 25.183C212.997 25.1719 212.454 25.2481 212.454 25.2481L212.329 23.8222L213.384 23.5363L214.43 23.8222V25.2481C214.43 25.2481 213.851 25.1943 213.42 25.183Z"
              fill="#333333"/>
        <path fill-rule="evenodd" clip-rule="evenodd"
              d="M213.323 37.4778C215.084 37.4572 216.211 36.9326 216.211 36.9326L215.523 34.77C215.523 34.77 214.045 35.1981 213.333 35.1988C212.622 35.1981 211.168 34.77 211.168 34.77L210.456 36.9326C210.456 36.9326 211.562 37.4572 213.323 37.4778ZM213.333 36.7561C214.336 36.7521 214.956 36.5463 215.292 36.41L215.108 35.6688C214.693 35.8051 213.973 35.9556 213.333 35.9609C212.694 35.9556 211.97 35.8433 211.555 35.707L211.395 36.41C211.731 36.5463 212.331 36.7521 213.333 36.7561Z"
              fill="#333333"/>
        <path fill-rule="evenodd" clip-rule="evenodd"
              d="M216.898 27.1889H209.769C209.824 27.2659 210.049 27.64 210.129 27.8558C210.21 28.0723 210.269 28.2907 210.272 28.4253C210.274 28.5319 210.287 28.8628 210.304 29.2953L210.304 29.2995C210.338 30.1571 210.387 31.4179 210.401 32.1627C210.407 32.4913 210.48 32.9269 210.744 33.283C211.012 33.6457 211.466 33.9089 212.194 33.9089H212.707C212.757 33.9089 212.792 33.922 212.82 33.9409C212.849 33.9611 212.876 33.9923 212.904 34.0369C212.931 34.082 212.96 34.1449 212.987 34.2047C213.011 34.2592 213.038 34.3202 213.07 34.3755C213.081 34.3901 213.125 34.449 213.166 34.4753C213.21 34.5034 213.265 34.5199 213.333 34.5199C213.403 34.5199 213.458 34.5028 213.503 34.4755C213.544 34.4499 213.586 34.3899 213.598 34.3755C213.631 34.3184 213.664 34.2554 213.688 34.1996C213.715 34.1395 213.741 34.0808 213.767 34.0357C213.794 33.9912 213.82 33.9604 213.849 33.9405C213.875 33.9219 213.909 33.9089 213.96 33.9089H214.473C215.201 33.9089 215.654 33.6457 215.923 33.283C216.186 32.9269 216.259 32.4913 216.265 32.1627C216.279 31.4179 216.329 30.1573 216.362 29.2996L216.363 29.2956C216.38 28.863 216.393 28.5319 216.395 28.4253C216.397 28.2907 216.457 28.0723 216.537 27.8558C216.618 27.64 216.842 27.2659 216.898 27.1889ZM211.126 28.1983C211.117 28.1525 211.108 28.1079 211.099 28.0674H215.588C215.576 28.1121 215.567 28.157 215.56 28.1991C215.544 28.3033 215.541 28.471 215.541 28.471C215.507 29.3483 215.436 31.1753 215.436 32.0841C215.436 32.459 215.315 32.7014 215.156 32.8491C214.994 32.9986 214.78 33.062 214.577 33.0556C214.55 33.0547 214.496 33.0538 214.438 33.0529C214.361 33.0516 214.277 33.0502 214.243 33.0487C214.039 33.0393 213.841 33.0485 213.668 33.096C213.543 33.1304 213.428 33.1859 213.335 33.2715C213.117 33.0565 212.766 32.9618 212.407 32.9782C212.373 32.9797 212.281 32.9811 212.195 32.9824C212.129 32.9833 212.067 32.9842 212.039 32.9851C211.657 32.9972 211.271 32.6811 211.271 32.0841C211.271 31.0914 211.206 29.425 211.173 28.5699C211.173 28.5699 211.149 28.3262 211.126 28.1983Z"
              fill="#333333"/>
        <path d="M211.088 28.0674C211.098 28.1079 211.107 28.1526 211.116 28.1983C211.139 28.3262 211.163 28.5699 211.163 28.5699C211.196 29.425 211.261 31.0914 211.261 32.0841C211.261 32.6811 211.647 32.9972 212.029 32.9851C212.057 32.9843 212.119 32.9833 212.185 32.9824C212.271 32.9811 212.363 32.9798 212.397 32.9782C212.756 32.9618 213.107 33.0565 213.325 33.2715C213.418 33.186 213.533 33.1304 213.658 33.096C213.831 33.0485 214.029 33.0393 214.233 33.0487C214.267 33.0502 214.351 33.0516 214.428 33.0529C214.486 33.0539 214.54 33.0547 214.567 33.0556C214.77 33.062 214.984 32.9986 215.146 32.8491C215.305 32.7014 215.426 32.459 215.426 32.0841C215.426 31.1753 215.497 29.3483 215.531 28.471C215.531 28.471 215.534 28.3033 215.55 28.1991C215.557 28.157 215.566 28.1121 215.578 28.0674H211.088Z"
              fill="#FFDD2D"/>
    </g>
    <path d="M229.292 34.165V25.835H226.667V34.165H229.292Z" fill="white"/>
    <path d="M235.623 34.165C238.948 34.165 240.593 32.3975 240.593 30C240.593 27.5675 238.948 25.835 235.903 25.835H231.213V34.165H235.623ZM235.36 27.83C237.163 27.83 237.915 28.635 237.915 30C237.915 31.26 237.163 32.2225 235.36 32.2225H233.75V27.83H235.36Z"
          fill="white"/>
    <defs>
        <clipPath id="clip0_1_1709">
            <rect width="18.6667" height="18.6667" fill="white" transform="translate(204 20.6667)"/>
        </clipPath>
    </defs>
</svg>
